M48
; DRILL file {KiCad (6.0.8)} date Mon Feb 20 15:23:12 2023
; FORMAT={-:-/ absolute / inch / decimal}
; #@! TF.CreationDate,2023-02-20T15:23:12-05:00
; #@! TF.GenerationSoftware,Kicad,Pcbnew,(6.0.8)
; #@! TF.FileFunction,Plated,1,2,PTH
FMAT,2
INCH
; #@! TA.AperFunction,Plated,PTH,ViaDrill
T1C0.0157
; #@! TA.AperFunction,Plated,PTH,ComponentDrill
T2C0.0197
; #@! TA.AperFunction,Plated,PTH,ComponentDrill
T3C0.0315
; #@! TA.AperFunction,Plated,PTH,ComponentDrill
T4C0.0374
; #@! TA.AperFunction,Plated,PTH,ComponentDrill
T5C0.0512
; #@! TA.AperFunction,Plated,PTH,ComponentDrill
T6C0.0866
%
G90
G05
T1
X4.987Y-4.197
X5.0364Y-4.4144
X5.097Y-4.407
X5.537Y-4.147
X5.697Y-4.357
T2
X4.2484Y-4.841
X4.2484Y-4.8804
X4.2484Y-4.9198
X4.2484Y-4.9592
X4.407Y-4.8095
X4.407Y-4.8489
X4.407Y-4.8883
X4.407Y-4.9276
X4.407Y-4.967
X4.487Y-4.177
X4.587Y-4.177
X4.687Y-4.177
X5.137Y-4.707
X5.307Y-4.167
X5.387Y-4.717
X5.397Y-4.167
X5.487Y-4.167
X5.487Y-4.717
X5.5683Y-4.0384
X5.587Y-4.717
X5.6076Y-4.0384
X5.647Y-4.0384
X5.6864Y-4.0384
X5.7257Y-4.0384
X5.837Y-4.827
X5.937Y-4.827
X6.037Y-4.827
T3
X4.487Y-4.287
X4.487Y-4.587
X4.587Y-4.287
X4.587Y-4.587
X4.687Y-4.287
X4.687Y-4.587
X4.787Y-4.287
X4.787Y-4.587
X4.887Y-4.067
X4.887Y-4.287
X4.887Y-4.587
X4.987Y-4.287
X4.987Y-4.587
X5.0791Y-4.067
X5.087Y-4.287
X5.087Y-4.587
X5.187Y-4.287
X5.187Y-4.587
X5.287Y-4.287
X5.287Y-4.587
X5.387Y-4.287
X5.387Y-4.587
X5.487Y-4.287
X5.487Y-4.587
X5.587Y-4.287
X5.587Y-4.587
X5.687Y-4.287
X5.687Y-4.587
X5.787Y-4.287
X5.787Y-4.587
X5.9466Y-4.2874
X5.9466Y-4.5874
X6.0466Y-4.2874
X6.0466Y-4.5874
X6.1466Y-4.2874
X6.1466Y-4.5874
X6.2466Y-4.2874
X6.2466Y-4.5874
T4
X5.3717Y-4.907
X5.4702Y-4.907
X5.5686Y-4.907
X5.667Y-4.907
T5
X4.337Y-4.347
X4.337Y-4.547
T6
X4.307Y-4.092
X6.187Y-4.092
X6.187Y-4.922
T0
M30
