%TF.GenerationSoftware,KiCad,Pcbnew,(6.0.8)*%
%TF.CreationDate,2023-02-20T15:23:30-05:00*%
%TF.ProjectId,Amicro_tst,416d6963-726f-45f7-9473-742e6b696361,rev?*%
%TF.SameCoordinates,Original*%
%TF.FileFunction,Copper,L2,Bot*%
%TF.FilePolarity,Positive*%
%FSLAX46Y46*%
G04 Gerber Fmt 4.6, Leading zero omitted, Abs format (unit mm)*
G04 Created by KiCad (PCBNEW (6.0.8)) date 2023-02-20 15:23:30*
%MOMM*%
%LPD*%
G01*
G04 APERTURE LIST*
G04 Aperture macros list*
%AMRoundRect*
0 Rectangle with rounded corners*
0 $1 Rounding radius*
0 $2 $3 $4 $5 $6 $7 $8 $9 X,Y pos of 4 corners*
0 Add a 4 corners polygon primitive as box body*
4,1,4,$2,$3,$4,$5,$6,$7,$8,$9,$2,$3,0*
0 Add four circle primitives for the rounded corners*
1,1,$1+$1,$2,$3*
1,1,$1+$1,$4,$5*
1,1,$1+$1,$6,$7*
1,1,$1+$1,$8,$9*
0 Add four rect primitives between the rounded corners*
20,1,$1+$1,$2,$3,$4,$5,0*
20,1,$1+$1,$4,$5,$6,$7,0*
20,1,$1+$1,$6,$7,$8,$9,0*
20,1,$1+$1,$8,$9,$2,$3,0*%
G04 Aperture macros list end*
%TA.AperFunction,ComponentPad*%
%ADD10R,1.000000X1.000000*%
%TD*%
%TA.AperFunction,ComponentPad*%
%ADD11C,3.800000*%
%TD*%
%TA.AperFunction,ComponentPad*%
%ADD12O,0.850000X0.850000*%
%TD*%
%TA.AperFunction,ComponentPad*%
%ADD13R,0.850000X0.850000*%
%TD*%
%TA.AperFunction,ComponentPad*%
%ADD14R,1.600000X1.600000*%
%TD*%
%TA.AperFunction,ComponentPad*%
%ADD15O,1.600000X1.600000*%
%TD*%
%TA.AperFunction,ComponentPad*%
%ADD16RoundRect,0.250000X0.600000X0.725000X-0.600000X0.725000X-0.600000X-0.725000X0.600000X-0.725000X0*%
%TD*%
%TA.AperFunction,ComponentPad*%
%ADD17O,1.700000X1.950000*%
%TD*%
%TA.AperFunction,ComponentPad*%
%ADD18C,1.500000*%
%TD*%
%TA.AperFunction,ComponentPad*%
%ADD19RoundRect,0.650000X0.650000X-0.650000X0.650000X0.650000X-0.650000X0.650000X-0.650000X-0.650000X0*%
%TD*%
%TA.AperFunction,ComponentPad*%
%ADD20C,2.600000*%
%TD*%
%TA.AperFunction,SMDPad,CuDef*%
%ADD21R,0.800000X1.800000*%
%TD*%
%TA.AperFunction,SMDPad,CuDef*%
%ADD22RoundRect,0.135000X-0.135000X-0.185000X0.135000X-0.185000X0.135000X0.185000X-0.135000X0.185000X0*%
%TD*%
%TA.AperFunction,SMDPad,CuDef*%
%ADD23RoundRect,0.135000X-0.185000X0.135000X-0.185000X-0.135000X0.185000X-0.135000X0.185000X0.135000X0*%
%TD*%
%TA.AperFunction,SMDPad,CuDef*%
%ADD24RoundRect,0.140000X-0.170000X0.140000X-0.170000X-0.140000X0.170000X-0.140000X0.170000X0.140000X0*%
%TD*%
%TA.AperFunction,SMDPad,CuDef*%
%ADD25RoundRect,0.140000X-0.140000X-0.170000X0.140000X-0.170000X0.140000X0.170000X-0.140000X0.170000X0*%
%TD*%
%TA.AperFunction,ViaPad*%
%ADD26C,0.600000*%
%TD*%
%TA.AperFunction,Conductor*%
%ADD27C,0.400000*%
%TD*%
%TA.AperFunction,Conductor*%
%ADD28C,0.250000*%
%TD*%
%TA.AperFunction,Conductor*%
%ADD29C,0.600000*%
%TD*%
%TA.AperFunction,Conductor*%
%ADD30C,0.300000*%
%TD*%
G04 APERTURE END LIST*
D10*
%TO.P,TP(14),1,1*%
%TO.N,Net-(TP(14)1-Pad1)*%
X113970000Y-106096000D03*
%TD*%
D11*
%TO.P,2.2mm,1*%
%TO.N,N/C*%
X157150000Y-125019000D03*
%TD*%
D10*
%TO.P,TP(6),1,1*%
%TO.N,Net-(TP(6)1-Pad1)*%
X134798000Y-105842000D03*
%TD*%
%TO.P,TP(26),1,1*%
%TO.N,Net-(TP(26)1-Pad1)*%
X141910000Y-119812000D03*
%TD*%
D12*
%TO.P,J5,4,Pin_4*%
%TO.N,Mt0+*%
X107910000Y-122962500D03*
%TO.P,J5,3,Pin_3*%
%TO.N,Mt1+*%
X107910000Y-123962500D03*
%TO.P,J5,2,Pin_2*%
%TO.N,Mt2+*%
X107910000Y-124962500D03*
D13*
%TO.P,J5,1,Pin_1*%
%TO.N,Mt3+*%
X107910000Y-125962500D03*
%TD*%
D14*
%TO.P,U2,1,A0*%
%TO.N,GND*%
X158664000Y-108900000D03*
D15*
%TO.P,U2,2,A1*%
X156124000Y-108900000D03*
%TO.P,U2,3,A2*%
X153584000Y-108900000D03*
%TO.P,U2,4,GND*%
X151044000Y-108900000D03*
%TO.P,U2,5,SDA*%
%TO.N,SDA*%
X151044000Y-116520000D03*
%TO.P,U2,6,SCL*%
%TO.N,SCL*%
X153584000Y-116520000D03*
%TO.P,U2,7,WP*%
%TO.N,GND*%
X156124000Y-116520000D03*
%TO.P,U2,8,VCC*%
%TO.N,VCC*%
X158664000Y-116520000D03*
%TD*%
D11*
%TO.P,2.2mm,1*%
%TO.N,N/C*%
X157150000Y-103937000D03*
%TD*%
D13*
%TO.P,J3,1,Pin_1*%
%TO.N,M3*%
X111938000Y-126162000D03*
D12*
%TO.P,J3,2,Pin_2*%
%TO.N,M2*%
X111938000Y-125162000D03*
%TO.P,J3,3,Pin_3*%
%TO.N,M1*%
X111938000Y-124162000D03*
%TO.P,J3,4,Pin_4*%
%TO.N,M0*%
X111938000Y-123162000D03*
%TO.P,J3,5,Pin_5*%
%TO.N,VCC*%
X111938000Y-122162000D03*
%TD*%
D10*
%TO.P,TP(uc),1*%
%TO.N,N/C*%
X148260000Y-122606000D03*
%TD*%
D16*
%TO.P,J1,1,Pin_1*%
%TO.N,GND*%
X143942000Y-124638000D03*
D17*
%TO.P,J1,2,Pin_2*%
%TO.N,AN*%
X141442000Y-124638000D03*
%TO.P,J1,3,Pin_3*%
%TO.N,PW*%
X138942000Y-124638000D03*
%TO.P,J1,4,Pin_4*%
%TO.N,VCC*%
X136442000Y-124638000D03*
%TD*%
D10*
%TO.P,TP(uc),1*%
%TO.N,N/C*%
X150800000Y-122606000D03*
%TD*%
%TO.P,TP(12),1,1*%
%TO.N,Net-(TP(12)1-Pad1)*%
X119050000Y-106096000D03*
%TD*%
%TO.P,TP(19),1,1*%
%TO.N,Net-(D1-Pad2)*%
X130480000Y-119558000D03*
%TD*%
%TO.P,TP(4),1,1*%
%TO.N,Net-(TP(4)1-Pad1)*%
X139370000Y-105842000D03*
%TD*%
%TO.P,TP(24),1,1*%
%TO.N,Net-(TP(24)1-Pad1)*%
X136830000Y-119812000D03*
%TD*%
%TO.P,TP(25),1,1*%
%TO.N,Net-(TP(25)1-Pad1)*%
X139370000Y-119812000D03*
%TD*%
%TO.P,TP(uc),1*%
%TO.N,N/C*%
X153340000Y-122606000D03*
%TD*%
D18*
%TO.P,Y1,1,1*%
%TO.N,Net-(C5-Pad1)*%
X124130000Y-103302000D03*
%TO.P,Y1,2,2*%
%TO.N,Net-(C4-Pad1)*%
X129010000Y-103302000D03*
%TD*%
D19*
%TO.P,J4,1,Pin_1*%
%TO.N,GND*%
X110160000Y-115494000D03*
D20*
%TO.P,J4,2,Pin_2*%
%TO.N,VCC*%
X110160000Y-110414000D03*
%TD*%
D10*
%TO.P,TP(7),1,1*%
%TO.N,Net-(TP(7)1-Pad1)*%
X137084000Y-105842000D03*
%TD*%
D11*
%TO.P,2.2mm,1*%
%TO.N,N/C*%
X109398000Y-103937000D03*
%TD*%
D13*
%TO.P,J2,1,Pin_1*%
%TO.N,GND*%
X145434000Y-102576000D03*
D12*
%TO.P,J2,2,Pin_2*%
%TO.N,RXD*%
X144434000Y-102576000D03*
%TO.P,J2,3,Pin_3*%
%TO.N,TXD*%
X143434000Y-102576000D03*
%TO.P,J2,4,Pin_4*%
%TO.N,VCC*%
X142434000Y-102576000D03*
%TO.P,J2,5,Pin_5*%
%TO.N,RESET*%
X141434000Y-102576000D03*
%TD*%
D14*
%TO.P,U1,1,~{RESET}/PC6*%
%TO.N,RESET*%
X146990000Y-108890000D03*
D15*
%TO.P,U1,2,PD0*%
%TO.N,RXD*%
X144450000Y-108890000D03*
%TO.P,U1,3,PD1*%
%TO.N,TXD*%
X141910000Y-108890000D03*
%TO.P,U1,4,PD2*%
%TO.N,Net-(TP(4)1-Pad1)*%
X139370000Y-108890000D03*
%TO.P,U1,5,PD3*%
%TO.N,Net-(TP(7)1-Pad1)*%
X136830000Y-108890000D03*
%TO.P,U1,6,PD4*%
%TO.N,Net-(TP(6)1-Pad1)*%
X134290000Y-108890000D03*
%TO.P,U1,7,VCC*%
%TO.N,VCC*%
X131750000Y-108890000D03*
%TO.P,U1,8,GND*%
%TO.N,GND*%
X129210000Y-108890000D03*
%TO.P,U1,9,XTAL1/PB6*%
%TO.N,Net-(C4-Pad1)*%
X126670000Y-108890000D03*
%TO.P,U1,10,XTAL2/PB7*%
%TO.N,Net-(C5-Pad1)*%
X124130000Y-108890000D03*
%TO.P,U1,11,PD5*%
%TO.N,PW*%
X121590000Y-108890000D03*
%TO.P,U1,12,PD6*%
%TO.N,Net-(TP(12)1-Pad1)*%
X119050000Y-108890000D03*
%TO.P,U1,13,PD7*%
%TO.N,Net-(TP(13)1-Pad1)*%
X116510000Y-108890000D03*
%TO.P,U1,14,PB0*%
%TO.N,Net-(TP(14)1-Pad1)*%
X113970000Y-108890000D03*
%TO.P,U1,15,PB1*%
%TO.N,PWM0*%
X113970000Y-116510000D03*
%TO.P,U1,16,PB2*%
%TO.N,PWM1*%
X116510000Y-116510000D03*
%TO.P,U1,17,PB3*%
%TO.N,PWM2*%
X119050000Y-116510000D03*
%TO.P,U1,18,PB4*%
%TO.N,PWM3*%
X121590000Y-116510000D03*
%TO.P,U1,19,PB5*%
%TO.N,Net-(D1-Pad2)*%
X124130000Y-116510000D03*
%TO.P,U1,20,AVCC*%
%TO.N,VCC*%
X126670000Y-116510000D03*
%TO.P,U1,21,AREF*%
%TO.N,Net-(C1-Pad1)*%
X129210000Y-116510000D03*
%TO.P,U1,22,GND*%
%TO.N,GND*%
X131750000Y-116510000D03*
%TO.P,U1,23,PC0*%
%TO.N,AN*%
X134290000Y-116510000D03*
%TO.P,U1,24,PC1*%
%TO.N,Net-(TP(24)1-Pad1)*%
X136830000Y-116510000D03*
%TO.P,U1,25,PC2*%
%TO.N,Net-(TP(25)1-Pad1)*%
X139370000Y-116510000D03*
%TO.P,U1,26,PC3*%
%TO.N,Net-(TP(26)1-Pad1)*%
X141910000Y-116510000D03*
%TO.P,U1,27,PC4*%
%TO.N,SDA*%
X144450000Y-116510000D03*
%TO.P,U1,28,PC5*%
%TO.N,SCL*%
X146990000Y-116510000D03*
%TD*%
D10*
%TO.P,TP(13),1,1*%
%TO.N,Net-(TP(13)1-Pad1)*%
X116510000Y-106096000D03*
%TD*%
D21*
%TO.P,Q4,1,B*%
%TO.N,Net-(Q4-Pad1)*%
X129530000Y-121972000D03*
%TO.P,Q4,2,E*%
%TO.N,GND*%
X131430000Y-121972000D03*
%TO.P,Q4,3,C*%
%TO.N,M3*%
X130480000Y-125272000D03*
%TD*%
D22*
%TO.P,R10,1*%
%TO.N,Mt2+*%
X109432000Y-125148000D03*
%TO.P,R10,2*%
%TO.N,VCC*%
X110452000Y-125148000D03*
%TD*%
%TO.P,R2,1*%
%TO.N,VCC*%
X145464000Y-110668000D03*
%TO.P,R2,2*%
%TO.N,RESET*%
X146484000Y-110668000D03*
%TD*%
D23*
%TO.P,R5,1*%
%TO.N,PWM0*%
X113970000Y-118538000D03*
%TO.P,R5,2*%
%TO.N,Net-(Q1-Pad1)*%
X113970000Y-119558000D03*
%TD*%
D22*
%TO.P,R11,1*%
%TO.N,Mt3+*%
X109432000Y-126166000D03*
%TO.P,R11,2*%
%TO.N,VCC*%
X110452000Y-126166000D03*
%TD*%
%TO.P,R8,2*%
%TO.N,VCC*%
X110452000Y-123114000D03*
%TO.P,R8,1*%
%TO.N,Mt0+*%
X109432000Y-123114000D03*
%TD*%
D23*
%TO.P,R7,1*%
%TO.N,PWM2*%
X119050000Y-118538000D03*
%TO.P,R7,2*%
%TO.N,Net-(Q3-Pad1)*%
X119050000Y-119558000D03*
%TD*%
D21*
%TO.P,Q3,1,B*%
%TO.N,Net-(Q3-Pad1)*%
X124704000Y-121972000D03*
%TO.P,Q3,2,E*%
%TO.N,GND*%
X126604000Y-121972000D03*
%TO.P,Q3,3,C*%
%TO.N,M2*%
X125654000Y-125272000D03*
%TD*%
D24*
%TO.P,C3,1*%
%TO.N,VCC*%
X130480000Y-111966000D03*
%TO.P,C3,2*%
%TO.N,GND*%
X130480000Y-112926000D03*
%TD*%
D23*
%TO.P,R12,1*%
%TO.N,PWM3*%
X121590000Y-118540000D03*
%TO.P,R12,2*%
%TO.N,Net-(Q4-Pad1)*%
X121590000Y-119560000D03*
%TD*%
D22*
%TO.P,R9,1*%
%TO.N,Mt1+*%
X109432000Y-124130000D03*
%TO.P,R9,2*%
%TO.N,VCC*%
X110452000Y-124130000D03*
%TD*%
D25*
%TO.P,C1,1*%
%TO.N,Net-(C1-Pad1)*%
X130000000Y-114732000D03*
%TO.P,C1,2*%
%TO.N,GND*%
X130960000Y-114732000D03*
%TD*%
D21*
%TO.P,Q1,1,B*%
%TO.N,Net-(Q1-Pad1)*%
X115052000Y-121972000D03*
%TO.P,Q1,2,E*%
%TO.N,GND*%
X116952000Y-121972000D03*
%TO.P,Q1,3,C*%
%TO.N,M0*%
X116002000Y-125272000D03*
%TD*%
%TO.P,Q2,1,B*%
%TO.N,Net-(Q2-Pad1)*%
X119878000Y-121972000D03*
%TO.P,Q2,2,E*%
%TO.N,GND*%
X121778000Y-121972000D03*
%TO.P,Q2,3,C*%
%TO.N,M1*%
X120828000Y-125272000D03*
%TD*%
D23*
%TO.P,R6,1*%
%TO.N,PWM1*%
X116510000Y-118538000D03*
%TO.P,R6,2*%
%TO.N,Net-(Q2-Pad1)*%
X116510000Y-119558000D03*
%TD*%
D26*
%TO.N,GND*%
X126670000Y-106604000D03*
%TO.N,VCC*%
X144704000Y-110668000D03*
X129464000Y-111938000D03*
%TO.N,RESET*%
X140640000Y-105334000D03*
%TO.N,PW*%
X127925039Y-112126500D03*
%TD*%
D27*
%TO.N,GND*%
X113716000Y-123499472D02*
X113716000Y-121484528D01*
X113716000Y-121484528D02*
X110160000Y-117928528D01*
X114047434Y-123830906D02*
X113716000Y-123499472D01*
X115093094Y-123830906D02*
X114047434Y-123830906D01*
X110160000Y-117928528D02*
X110160000Y-115494000D01*
X116952000Y-121972000D02*
X115093094Y-123830906D01*
%TO.N,M3*%
X112482000Y-128194000D02*
X111938000Y-127650000D01*
X111938000Y-127650000D02*
X111938000Y-126162000D01*
%TO.N,Net-(Q1-Pad1)*%
X115052000Y-120640000D02*
X115052000Y-121972000D01*
X113970000Y-119558000D02*
X115052000Y-120640000D01*
%TO.N,M0*%
X116002000Y-125272000D02*
X114732000Y-125272000D01*
%TO.N,M1*%
X113716000Y-125364000D02*
X112482000Y-124130000D01*
X111970000Y-124130000D02*
X111938000Y-124162000D01*
X113716000Y-126994000D02*
X113716000Y-125364000D01*
X112482000Y-124130000D02*
X111970000Y-124130000D01*
X119106000Y-126994000D02*
X113786000Y-126994000D01*
X120828000Y-125272000D02*
X119106000Y-126994000D01*
X113786000Y-126994000D02*
X113716000Y-126924000D01*
%TO.N,M2*%
X123332000Y-127594000D02*
X113208000Y-127594000D01*
X125654000Y-125272000D02*
X123332000Y-127594000D01*
%TO.N,M3*%
X123622000Y-128194000D02*
X112446000Y-128194000D01*
X125244000Y-126572000D02*
X123622000Y-128194000D01*
X129180000Y-126572000D02*
X125244000Y-126572000D01*
X130480000Y-125272000D02*
X129180000Y-126572000D01*
D28*
%TO.N,VCC*%
X110452000Y-123114000D02*
X110452000Y-126166000D01*
X110894000Y-122162000D02*
X111938000Y-122162000D01*
X110452000Y-123114000D02*
X110452000Y-122604000D01*
X110452000Y-122604000D02*
X110894000Y-122162000D01*
%TO.N,Mt0+*%
X109432000Y-123114000D02*
X108061500Y-123114000D01*
X108061500Y-123114000D02*
X107910000Y-122962500D01*
%TO.N,Mt1+*%
X108077500Y-124130000D02*
X107910000Y-123962500D01*
X109432000Y-124130000D02*
X108077500Y-124130000D01*
%TO.N,Mt3+*%
X108113500Y-126166000D02*
X107910000Y-125962500D01*
X109432000Y-126166000D02*
X108113500Y-126166000D01*
%TO.N,Mt2+*%
X108095500Y-125148000D02*
X107910000Y-124962500D01*
X109432000Y-125148000D02*
X108095500Y-125148000D01*
D27*
%TO.N,GND*%
X145470000Y-102540000D02*
X145434000Y-102576000D01*
X118252000Y-123272000D02*
X120478000Y-123272000D01*
X131750000Y-116510000D02*
X131750000Y-114732000D01*
X129210000Y-108890000D02*
X128702000Y-109398000D01*
X131750000Y-114732000D02*
X131750000Y-114196000D01*
X116952000Y-121972000D02*
X118252000Y-123272000D01*
X128702000Y-109398000D02*
X128702000Y-112390000D01*
X130130000Y-123272000D02*
X131430000Y-121972000D01*
X125304000Y-123272000D02*
X126604000Y-121972000D01*
D29*
X112728000Y-112926000D02*
X129238000Y-112926000D01*
D27*
X151044000Y-108900000D02*
X149002000Y-106858000D01*
X151054000Y-110922000D02*
X153848000Y-110922000D01*
X130960000Y-114732000D02*
X131750000Y-114732000D01*
X128702000Y-112390000D02*
X129238000Y-112926000D01*
X154130000Y-112926000D02*
X154638000Y-112926000D01*
X153848000Y-110922000D02*
X155880000Y-110922000D01*
X131750000Y-116510000D02*
X131750000Y-121906000D01*
X143942000Y-124638000D02*
X141530000Y-122226000D01*
X141530000Y-122226000D02*
X131430000Y-122226000D01*
X126924000Y-106604000D02*
X129210000Y-108890000D01*
X126604000Y-121972000D02*
X127904000Y-123272000D01*
X156124000Y-110678000D02*
X155880000Y-110922000D01*
D29*
X156124000Y-116520000D02*
X156124000Y-114920000D01*
D27*
X131750000Y-121652000D02*
X131430000Y-121972000D01*
X146228000Y-102540000D02*
X145470000Y-102540000D01*
X146482000Y-106858000D02*
X146228000Y-106604000D01*
X123078000Y-123272000D02*
X125304000Y-123272000D01*
D29*
X129238000Y-112926000D02*
X130480000Y-112926000D01*
D27*
X120478000Y-123272000D02*
X121778000Y-121972000D01*
D29*
X154638000Y-112926000D02*
X156642000Y-110922000D01*
D27*
X146228000Y-106604000D02*
X146228000Y-102540000D01*
X151044000Y-108900000D02*
X151044000Y-110912000D01*
D29*
X130480000Y-112926000D02*
X154130000Y-112926000D01*
D27*
X156124000Y-108900000D02*
X156124000Y-110678000D01*
X121778000Y-121972000D02*
X123078000Y-123272000D01*
D29*
X156642000Y-110922000D02*
X158664000Y-108900000D01*
X110160000Y-115494000D02*
X112728000Y-112926000D01*
D27*
X126670000Y-106604000D02*
X126924000Y-106604000D01*
X155880000Y-110922000D02*
X156642000Y-110922000D01*
D29*
X156124000Y-114920000D02*
X154130000Y-112926000D01*
D27*
X153584000Y-110658000D02*
X153848000Y-110922000D01*
X131750000Y-114196000D02*
X130480000Y-112926000D01*
X127904000Y-123272000D02*
X130130000Y-123272000D01*
X151044000Y-110912000D02*
X151054000Y-110922000D01*
X153584000Y-108900000D02*
X153584000Y-110658000D01*
X149002000Y-106858000D02*
X146482000Y-106858000D01*
D28*
%TO.N,VCC*%
X110450000Y-125400000D02*
X110450000Y-125150000D01*
D27*
X129746000Y-111966000D02*
X130480000Y-111966000D01*
D28*
X110450000Y-125150000D02*
X110452000Y-125148000D01*
D27*
X129718000Y-111938000D02*
X129746000Y-111966000D01*
X145464000Y-110668000D02*
X144704000Y-110668000D01*
D28*
X110452000Y-125402000D02*
X110450000Y-125400000D01*
D27*
%TO.N,RESET*%
X146990000Y-110162000D02*
X146484000Y-110668000D01*
X140640000Y-103370000D02*
X141434000Y-102576000D01*
X140640000Y-105334000D02*
X140640000Y-103370000D01*
X146990000Y-108890000D02*
X146990000Y-110162000D01*
%TO.N,RXD*%
X144450000Y-102592000D02*
X144434000Y-102576000D01*
X144450000Y-108890000D02*
X144450000Y-102592000D01*
%TO.N,Net-(C1-Pad1)*%
X130000000Y-114732000D02*
X130000000Y-115720000D01*
X130000000Y-115720000D02*
X129210000Y-116510000D01*
%TO.N,Net-(D1-Pad2)*%
X124130000Y-119558000D02*
X124130000Y-116510000D01*
X130480000Y-119558000D02*
X124130000Y-119558000D01*
%TO.N,PW*%
X127925039Y-112126500D02*
X124826500Y-112126500D01*
X124826500Y-112126500D02*
X121590000Y-108890000D01*
%TO.N,TXD*%
X142418000Y-108382000D02*
X142418000Y-105501470D01*
X142418000Y-105501470D02*
X143434000Y-104485470D01*
X143434000Y-104485470D02*
X143434000Y-102576000D01*
X142164000Y-108636000D02*
X141910000Y-108890000D01*
D30*
X142164000Y-108636000D02*
X142418000Y-108382000D01*
D27*
%TO.N,PWM1*%
X116510000Y-116510000D02*
X116510000Y-118540000D01*
%TO.N,PWM2*%
X119050000Y-116510000D02*
X119050000Y-118540000D01*
%TO.N,Net-(Q2-Pad1)*%
X117464000Y-119558000D02*
X119878000Y-121972000D01*
X116510000Y-119558000D02*
X117464000Y-119558000D01*
%TO.N,PWM0*%
X113970000Y-116510000D02*
X113970000Y-118540000D01*
%TO.N,Net-(Q3-Pad1)*%
X119050000Y-119558000D02*
X119812000Y-120320000D01*
X119812000Y-120320000D02*
X122606000Y-120320000D01*
X124258000Y-121972000D02*
X124704000Y-121972000D01*
X122606000Y-120320000D02*
X124258000Y-121972000D01*
%TO.N,M2*%
X112990000Y-127432000D02*
X112990000Y-125564000D01*
X113152000Y-127594000D02*
X112990000Y-127432000D01*
X112990000Y-125564000D02*
X112588000Y-125162000D01*
X112588000Y-125162000D02*
X111938000Y-125162000D01*
%TO.N,Net-(Q4-Pad1)*%
X128702000Y-120574000D02*
X129530000Y-121402000D01*
X122888528Y-119558000D02*
X123904528Y-120574000D01*
X121590000Y-119560000D02*
X122888528Y-119560000D01*
X123904528Y-120574000D02*
X128702000Y-120574000D01*
X129530000Y-121402000D02*
X129530000Y-121972000D01*
%TO.N,M0*%
X114640000Y-125272000D02*
X112530000Y-123162000D01*
X112530000Y-123162000D02*
X111938000Y-123162000D01*
%TO.N,PWM3*%
X121590000Y-116510000D02*
X121590000Y-118542000D01*
%TD*%
M02*
