%TF.GenerationSoftware,KiCad,Pcbnew,(6.0.8)*%
%TF.CreationDate,2023-03-24T12:53:59-04:00*%
%TF.ProjectId,Amicro_tst,416d6963-726f-45f7-9473-742e6b696361,rev?*%
%TF.SameCoordinates,Original*%
%TF.FileFunction,AssemblyDrawing,Top*%
%FSLAX46Y46*%
G04 Gerber Fmt 4.6, Leading zero omitted, Abs format (unit mm)*
G04 Created by KiCad (PCBNEW (6.0.8)) date 2023-03-24 12:53:59*
%MOMM*%
%LPD*%
G01*
G04 APERTURE LIST*
%ADD10C,0.150000*%
%ADD11C,0.100000*%
%ADD12C,0.050000*%
%ADD13C,0.140000*%
%ADD14C,0.125000*%
G04 APERTURE END LIST*
D10*
X129178761Y-130814380D02*
X128702571Y-130814380D01*
X128654952Y-131290571D01*
X128702571Y-131242952D01*
X128797809Y-131195333D01*
X129035904Y-131195333D01*
X129131142Y-131242952D01*
X129178761Y-131290571D01*
X129226380Y-131385809D01*
X129226380Y-131623904D01*
X129178761Y-131719142D01*
X129131142Y-131766761D01*
X129035904Y-131814380D01*
X128797809Y-131814380D01*
X128702571Y-131766761D01*
X128654952Y-131719142D01*
X130131142Y-130814380D02*
X129654952Y-130814380D01*
X129607333Y-131290571D01*
X129654952Y-131242952D01*
X129750190Y-131195333D01*
X129988285Y-131195333D01*
X130083523Y-131242952D01*
X130131142Y-131290571D01*
X130178761Y-131385809D01*
X130178761Y-131623904D01*
X130131142Y-131719142D01*
X130083523Y-131766761D01*
X129988285Y-131814380D01*
X129750190Y-131814380D01*
X129654952Y-131766761D01*
X129607333Y-131719142D01*
X130607333Y-131719142D02*
X130654952Y-131766761D01*
X130607333Y-131814380D01*
X130559714Y-131766761D01*
X130607333Y-131719142D01*
X130607333Y-131814380D01*
X131226380Y-131242952D02*
X131131142Y-131195333D01*
X131083523Y-131147714D01*
X131035904Y-131052476D01*
X131035904Y-131004857D01*
X131083523Y-130909619D01*
X131131142Y-130862000D01*
X131226380Y-130814380D01*
X131416857Y-130814380D01*
X131512095Y-130862000D01*
X131559714Y-130909619D01*
X131607333Y-131004857D01*
X131607333Y-131052476D01*
X131559714Y-131147714D01*
X131512095Y-131195333D01*
X131416857Y-131242952D01*
X131226380Y-131242952D01*
X131131142Y-131290571D01*
X131083523Y-131338190D01*
X131035904Y-131433428D01*
X131035904Y-131623904D01*
X131083523Y-131719142D01*
X131131142Y-131766761D01*
X131226380Y-131814380D01*
X131416857Y-131814380D01*
X131512095Y-131766761D01*
X131559714Y-131719142D01*
X131607333Y-131623904D01*
X131607333Y-131433428D01*
X131559714Y-131338190D01*
X131512095Y-131290571D01*
X131416857Y-131242952D01*
X132178761Y-131242952D02*
X132083523Y-131195333D01*
X132035904Y-131147714D01*
X131988285Y-131052476D01*
X131988285Y-131004857D01*
X132035904Y-130909619D01*
X132083523Y-130862000D01*
X132178761Y-130814380D01*
X132369238Y-130814380D01*
X132464476Y-130862000D01*
X132512095Y-130909619D01*
X132559714Y-131004857D01*
X132559714Y-131052476D01*
X132512095Y-131147714D01*
X132464476Y-131195333D01*
X132369238Y-131242952D01*
X132178761Y-131242952D01*
X132083523Y-131290571D01*
X132035904Y-131338190D01*
X131988285Y-131433428D01*
X131988285Y-131623904D01*
X132035904Y-131719142D01*
X132083523Y-131766761D01*
X132178761Y-131814380D01*
X132369238Y-131814380D01*
X132464476Y-131766761D01*
X132512095Y-131719142D01*
X132559714Y-131623904D01*
X132559714Y-131433428D01*
X132512095Y-131338190D01*
X132464476Y-131290571D01*
X132369238Y-131242952D01*
X133178761Y-130814380D02*
X133274000Y-130814380D01*
X133369238Y-130862000D01*
X133416857Y-130909619D01*
X133464476Y-131004857D01*
X133512095Y-131195333D01*
X133512095Y-131433428D01*
X133464476Y-131623904D01*
X133416857Y-131719142D01*
X133369238Y-131766761D01*
X133274000Y-131814380D01*
X133178761Y-131814380D01*
X133083523Y-131766761D01*
X133035904Y-131719142D01*
X132988285Y-131623904D01*
X132940666Y-131433428D01*
X132940666Y-131195333D01*
X132988285Y-131004857D01*
X133035904Y-130909619D01*
X133083523Y-130862000D01*
X133178761Y-130814380D01*
X134131142Y-130814380D02*
X134226380Y-130814380D01*
X134321619Y-130862000D01*
X134369238Y-130909619D01*
X134416857Y-131004857D01*
X134464476Y-131195333D01*
X134464476Y-131433428D01*
X134416857Y-131623904D01*
X134369238Y-131719142D01*
X134321619Y-131766761D01*
X134226380Y-131814380D01*
X134131142Y-131814380D01*
X134035904Y-131766761D01*
X133988285Y-131719142D01*
X133940666Y-131623904D01*
X133893047Y-131433428D01*
X133893047Y-131195333D01*
X133940666Y-131004857D01*
X133988285Y-130909619D01*
X134035904Y-130862000D01*
X134131142Y-130814380D01*
X135654952Y-131814380D02*
X135654952Y-131147714D01*
X135654952Y-131242952D02*
X135702571Y-131195333D01*
X135797809Y-131147714D01*
X135940666Y-131147714D01*
X136035904Y-131195333D01*
X136083523Y-131290571D01*
X136083523Y-131814380D01*
X136083523Y-131290571D02*
X136131142Y-131195333D01*
X136226380Y-131147714D01*
X136369238Y-131147714D01*
X136464476Y-131195333D01*
X136512095Y-131290571D01*
X136512095Y-131814380D01*
X136988285Y-131814380D02*
X136988285Y-131147714D01*
X136988285Y-131242952D02*
X137035904Y-131195333D01*
X137131142Y-131147714D01*
X137274000Y-131147714D01*
X137369238Y-131195333D01*
X137416857Y-131290571D01*
X137416857Y-131814380D01*
X137416857Y-131290571D02*
X137464476Y-131195333D01*
X137559714Y-131147714D01*
X137702571Y-131147714D01*
X137797809Y-131195333D01*
X137845428Y-131290571D01*
X137845428Y-131814380D01*
D11*
X105334000Y-129456000D02*
X105334000Y-133098420D01*
X161214000Y-129456000D02*
X161214000Y-133098420D01*
X105334000Y-132512000D02*
X161214000Y-132512000D01*
X105334000Y-132512000D02*
X161214000Y-132512000D01*
X105334000Y-132512000D02*
X106460504Y-133098421D01*
X105334000Y-132512000D02*
X106460504Y-131925579D01*
X161214000Y-132512000D02*
X160087496Y-131925579D01*
X161214000Y-132512000D02*
X160087496Y-133098421D01*
D10*
X164437619Y-118843047D02*
X164390000Y-118795428D01*
X164342380Y-118700190D01*
X164342380Y-118462095D01*
X164390000Y-118366857D01*
X164437619Y-118319238D01*
X164532857Y-118271619D01*
X164628095Y-118271619D01*
X164770952Y-118319238D01*
X165342380Y-118890666D01*
X165342380Y-118271619D01*
X164770952Y-117700190D02*
X164723333Y-117795428D01*
X164675714Y-117843047D01*
X164580476Y-117890666D01*
X164532857Y-117890666D01*
X164437619Y-117843047D01*
X164390000Y-117795428D01*
X164342380Y-117700190D01*
X164342380Y-117509714D01*
X164390000Y-117414476D01*
X164437619Y-117366857D01*
X164532857Y-117319238D01*
X164580476Y-117319238D01*
X164675714Y-117366857D01*
X164723333Y-117414476D01*
X164770952Y-117509714D01*
X164770952Y-117700190D01*
X164818571Y-117795428D01*
X164866190Y-117843047D01*
X164961428Y-117890666D01*
X165151904Y-117890666D01*
X165247142Y-117843047D01*
X165294761Y-117795428D01*
X165342380Y-117700190D01*
X165342380Y-117509714D01*
X165294761Y-117414476D01*
X165247142Y-117366857D01*
X165151904Y-117319238D01*
X164961428Y-117319238D01*
X164866190Y-117366857D01*
X164818571Y-117414476D01*
X164770952Y-117509714D01*
X165247142Y-116890666D02*
X165294761Y-116843047D01*
X165342380Y-116890666D01*
X165294761Y-116938285D01*
X165247142Y-116890666D01*
X165342380Y-116890666D01*
X164675714Y-115985904D02*
X165342380Y-115985904D01*
X164294761Y-116224000D02*
X165009047Y-116462095D01*
X165009047Y-115843047D01*
X164675714Y-115033523D02*
X165342380Y-115033523D01*
X164294761Y-115271619D02*
X165009047Y-115509714D01*
X165009047Y-114890666D01*
X164770952Y-114366857D02*
X164723333Y-114462095D01*
X164675714Y-114509714D01*
X164580476Y-114557333D01*
X164532857Y-114557333D01*
X164437619Y-114509714D01*
X164390000Y-114462095D01*
X164342380Y-114366857D01*
X164342380Y-114176380D01*
X164390000Y-114081142D01*
X164437619Y-114033523D01*
X164532857Y-113985904D01*
X164580476Y-113985904D01*
X164675714Y-114033523D01*
X164723333Y-114081142D01*
X164770952Y-114176380D01*
X164770952Y-114366857D01*
X164818571Y-114462095D01*
X164866190Y-114509714D01*
X164961428Y-114557333D01*
X165151904Y-114557333D01*
X165247142Y-114509714D01*
X165294761Y-114462095D01*
X165342380Y-114366857D01*
X165342380Y-114176380D01*
X165294761Y-114081142D01*
X165247142Y-114033523D01*
X165151904Y-113985904D01*
X164961428Y-113985904D01*
X164866190Y-114033523D01*
X164818571Y-114081142D01*
X164770952Y-114176380D01*
X164342380Y-113366857D02*
X164342380Y-113271619D01*
X164390000Y-113176380D01*
X164437619Y-113128761D01*
X164532857Y-113081142D01*
X164723333Y-113033523D01*
X164961428Y-113033523D01*
X165151904Y-113081142D01*
X165247142Y-113128761D01*
X165294761Y-113176380D01*
X165342380Y-113271619D01*
X165342380Y-113366857D01*
X165294761Y-113462095D01*
X165247142Y-113509714D01*
X165151904Y-113557333D01*
X164961428Y-113604952D01*
X164723333Y-113604952D01*
X164532857Y-113557333D01*
X164437619Y-113509714D01*
X164390000Y-113462095D01*
X164342380Y-113366857D01*
X165342380Y-111843047D02*
X164675714Y-111843047D01*
X164770952Y-111843047D02*
X164723333Y-111795428D01*
X164675714Y-111700190D01*
X164675714Y-111557333D01*
X164723333Y-111462095D01*
X164818571Y-111414476D01*
X165342380Y-111414476D01*
X164818571Y-111414476D02*
X164723333Y-111366857D01*
X164675714Y-111271619D01*
X164675714Y-111128761D01*
X164723333Y-111033523D01*
X164818571Y-110985904D01*
X165342380Y-110985904D01*
X165342380Y-110509714D02*
X164675714Y-110509714D01*
X164770952Y-110509714D02*
X164723333Y-110462095D01*
X164675714Y-110366857D01*
X164675714Y-110224000D01*
X164723333Y-110128761D01*
X164818571Y-110081142D01*
X165342380Y-110081142D01*
X164818571Y-110081142D02*
X164723333Y-110033523D01*
X164675714Y-109938285D01*
X164675714Y-109795428D01*
X164723333Y-109700190D01*
X164818571Y-109652571D01*
X165342380Y-109652571D01*
D11*
X161714000Y-100000000D02*
X166626420Y-100000000D01*
X161714000Y-128448000D02*
X166626420Y-128448000D01*
X166040000Y-100000000D02*
X166040000Y-128448000D01*
X166040000Y-100000000D02*
X166040000Y-128448000D01*
X166040000Y-100000000D02*
X165453579Y-101126504D01*
X166040000Y-100000000D02*
X166626421Y-101126504D01*
X166040000Y-128448000D02*
X166626421Y-127321496D01*
X166040000Y-128448000D02*
X165453579Y-127321496D01*
D12*
%TO.C,TP(14)*%
X113950190Y-104964857D02*
X113950190Y-104679142D01*
X114450190Y-104822000D02*
X113950190Y-104822000D01*
X114450190Y-104512476D02*
X113950190Y-104512476D01*
X113950190Y-104322000D01*
X113974000Y-104274380D01*
X113997809Y-104250571D01*
X114045428Y-104226761D01*
X114116857Y-104226761D01*
X114164476Y-104250571D01*
X114188285Y-104274380D01*
X114212095Y-104322000D01*
X114212095Y-104512476D01*
%TO.C,C4*%
X131028000Y-106504809D02*
X131051809Y-106481000D01*
X131099428Y-106457190D01*
X131218476Y-106457190D01*
X131266095Y-106481000D01*
X131289904Y-106504809D01*
X131313714Y-106552428D01*
X131313714Y-106600047D01*
X131289904Y-106671476D01*
X131004190Y-106957190D01*
X131313714Y-106957190D01*
X131504190Y-106504809D02*
X131528000Y-106481000D01*
X131575619Y-106457190D01*
X131694666Y-106457190D01*
X131742285Y-106481000D01*
X131766095Y-106504809D01*
X131789904Y-106552428D01*
X131789904Y-106600047D01*
X131766095Y-106671476D01*
X131480380Y-106957190D01*
X131789904Y-106957190D01*
X132004190Y-106623857D02*
X132004190Y-107123857D01*
X132004190Y-106647666D02*
X132051809Y-106623857D01*
X132147047Y-106623857D01*
X132194666Y-106647666D01*
X132218476Y-106671476D01*
X132242285Y-106719095D01*
X132242285Y-106861952D01*
X132218476Y-106909571D01*
X132194666Y-106933380D01*
X132147047Y-106957190D01*
X132051809Y-106957190D01*
X132004190Y-106933380D01*
X132385142Y-106623857D02*
X132575619Y-106623857D01*
X132456571Y-106957190D02*
X132456571Y-106528619D01*
X132480380Y-106481000D01*
X132528000Y-106457190D01*
X132575619Y-106457190D01*
X128872666Y-106909571D02*
X128848857Y-106933380D01*
X128777428Y-106957190D01*
X128729809Y-106957190D01*
X128658380Y-106933380D01*
X128610761Y-106885761D01*
X128586952Y-106838142D01*
X128563142Y-106742904D01*
X128563142Y-106671476D01*
X128586952Y-106576238D01*
X128610761Y-106528619D01*
X128658380Y-106481000D01*
X128729809Y-106457190D01*
X128777428Y-106457190D01*
X128848857Y-106481000D01*
X128872666Y-106504809D01*
X129301238Y-106623857D02*
X129301238Y-106957190D01*
X129182190Y-106433380D02*
X129063142Y-106790523D01*
X129372666Y-106790523D01*
%TO.C,2.2mm*%
X156650000Y-122252809D02*
X156673809Y-122229000D01*
X156721428Y-122205190D01*
X156840476Y-122205190D01*
X156888095Y-122229000D01*
X156911904Y-122252809D01*
X156935714Y-122300428D01*
X156935714Y-122348047D01*
X156911904Y-122419476D01*
X156626190Y-122705190D01*
X156935714Y-122705190D01*
X157150000Y-122657571D02*
X157173809Y-122681380D01*
X157150000Y-122705190D01*
X157126190Y-122681380D01*
X157150000Y-122657571D01*
X157150000Y-122705190D01*
X157364285Y-122252809D02*
X157388095Y-122229000D01*
X157435714Y-122205190D01*
X157554761Y-122205190D01*
X157602380Y-122229000D01*
X157626190Y-122252809D01*
X157650000Y-122300428D01*
X157650000Y-122348047D01*
X157626190Y-122419476D01*
X157340476Y-122705190D01*
X157650000Y-122705190D01*
D10*
X154816666Y-124566619D02*
X154864285Y-124519000D01*
X154959523Y-124471380D01*
X155197619Y-124471380D01*
X155292857Y-124519000D01*
X155340476Y-124566619D01*
X155388095Y-124661857D01*
X155388095Y-124757095D01*
X155340476Y-124899952D01*
X154769047Y-125471380D01*
X155388095Y-125471380D01*
X155816666Y-125376142D02*
X155864285Y-125423761D01*
X155816666Y-125471380D01*
X155769047Y-125423761D01*
X155816666Y-125376142D01*
X155816666Y-125471380D01*
X156245238Y-124566619D02*
X156292857Y-124519000D01*
X156388095Y-124471380D01*
X156626190Y-124471380D01*
X156721428Y-124519000D01*
X156769047Y-124566619D01*
X156816666Y-124661857D01*
X156816666Y-124757095D01*
X156769047Y-124899952D01*
X156197619Y-125471380D01*
X156816666Y-125471380D01*
X157245238Y-125471380D02*
X157245238Y-124804714D01*
X157245238Y-124899952D02*
X157292857Y-124852333D01*
X157388095Y-124804714D01*
X157530952Y-124804714D01*
X157626190Y-124852333D01*
X157673809Y-124947571D01*
X157673809Y-125471380D01*
X157673809Y-124947571D02*
X157721428Y-124852333D01*
X157816666Y-124804714D01*
X157959523Y-124804714D01*
X158054761Y-124852333D01*
X158102380Y-124947571D01*
X158102380Y-125471380D01*
X158578571Y-125471380D02*
X158578571Y-124804714D01*
X158578571Y-124899952D02*
X158626190Y-124852333D01*
X158721428Y-124804714D01*
X158864285Y-124804714D01*
X158959523Y-124852333D01*
X159007142Y-124947571D01*
X159007142Y-125471380D01*
X159007142Y-124947571D02*
X159054761Y-124852333D01*
X159150000Y-124804714D01*
X159292857Y-124804714D01*
X159388095Y-124852333D01*
X159435714Y-124947571D01*
X159435714Y-125471380D01*
D12*
%TO.C,R3*%
X149776857Y-119641285D02*
X150110190Y-119641285D01*
X149586380Y-119760333D02*
X149943523Y-119879380D01*
X149943523Y-119569857D01*
X150062571Y-119379380D02*
X150086380Y-119355571D01*
X150110190Y-119379380D01*
X150086380Y-119403190D01*
X150062571Y-119379380D01*
X150110190Y-119379380D01*
X149610190Y-119188904D02*
X149610190Y-118855571D01*
X150110190Y-119069857D01*
X150110190Y-118665095D02*
X149610190Y-118665095D01*
X149919714Y-118617476D02*
X150110190Y-118474619D01*
X149776857Y-118474619D02*
X149967333Y-118665095D01*
X151280190Y-119260333D02*
X151042095Y-119427000D01*
X151280190Y-119546047D02*
X150780190Y-119546047D01*
X150780190Y-119355571D01*
X150804000Y-119307952D01*
X150827809Y-119284142D01*
X150875428Y-119260333D01*
X150946857Y-119260333D01*
X150994476Y-119284142D01*
X151018285Y-119307952D01*
X151042095Y-119355571D01*
X151042095Y-119546047D01*
X150780190Y-119093666D02*
X150780190Y-118784142D01*
X150970666Y-118950809D01*
X150970666Y-118879380D01*
X150994476Y-118831761D01*
X151018285Y-118807952D01*
X151065904Y-118784142D01*
X151184952Y-118784142D01*
X151232571Y-118807952D01*
X151256380Y-118831761D01*
X151280190Y-118879380D01*
X151280190Y-119022238D01*
X151256380Y-119069857D01*
X151232571Y-119093666D01*
%TO.C,TP(6)*%
X134405142Y-103282190D02*
X134690857Y-103282190D01*
X134548000Y-103782190D02*
X134548000Y-103282190D01*
X134857523Y-103782190D02*
X134857523Y-103282190D01*
X135048000Y-103282190D01*
X135095619Y-103306000D01*
X135119428Y-103329809D01*
X135143238Y-103377428D01*
X135143238Y-103448857D01*
X135119428Y-103496476D01*
X135095619Y-103520285D01*
X135048000Y-103544095D01*
X134857523Y-103544095D01*
X133833714Y-104118190D02*
X134119428Y-104118190D01*
X133976571Y-104618190D02*
X133976571Y-104118190D01*
X134286095Y-104618190D02*
X134286095Y-104118190D01*
X134476571Y-104118190D01*
X134524190Y-104142000D01*
X134548000Y-104165809D01*
X134571809Y-104213428D01*
X134571809Y-104284857D01*
X134548000Y-104332476D01*
X134524190Y-104356285D01*
X134476571Y-104380095D01*
X134286095Y-104380095D01*
X134928952Y-104808666D02*
X134905142Y-104784857D01*
X134857523Y-104713428D01*
X134833714Y-104665809D01*
X134809904Y-104594380D01*
X134786095Y-104475333D01*
X134786095Y-104380095D01*
X134809904Y-104261047D01*
X134833714Y-104189619D01*
X134857523Y-104142000D01*
X134905142Y-104070571D01*
X134928952Y-104046761D01*
X135333714Y-104118190D02*
X135238476Y-104118190D01*
X135190857Y-104142000D01*
X135167047Y-104165809D01*
X135119428Y-104237238D01*
X135095619Y-104332476D01*
X135095619Y-104522952D01*
X135119428Y-104570571D01*
X135143238Y-104594380D01*
X135190857Y-104618190D01*
X135286095Y-104618190D01*
X135333714Y-104594380D01*
X135357523Y-104570571D01*
X135381333Y-104522952D01*
X135381333Y-104403904D01*
X135357523Y-104356285D01*
X135333714Y-104332476D01*
X135286095Y-104308666D01*
X135190857Y-104308666D01*
X135143238Y-104332476D01*
X135119428Y-104356285D01*
X135095619Y-104403904D01*
X135548000Y-104808666D02*
X135571809Y-104784857D01*
X135619428Y-104713428D01*
X135643238Y-104665809D01*
X135667047Y-104594380D01*
X135690857Y-104475333D01*
X135690857Y-104380095D01*
X135667047Y-104261047D01*
X135643238Y-104189619D01*
X135619428Y-104142000D01*
X135571809Y-104070571D01*
X135548000Y-104046761D01*
%TO.C,TP(26)*%
X140247142Y-119538190D02*
X140532857Y-119538190D01*
X140390000Y-120038190D02*
X140390000Y-119538190D01*
X140699523Y-120038190D02*
X140699523Y-119538190D01*
X140890000Y-119538190D01*
X140937619Y-119562000D01*
X140961428Y-119585809D01*
X140985238Y-119633428D01*
X140985238Y-119704857D01*
X140961428Y-119752476D01*
X140937619Y-119776285D01*
X140890000Y-119800095D01*
X140699523Y-119800095D01*
%TO.C,U2*%
X150827809Y-113866619D02*
X150804000Y-113842809D01*
X150780190Y-113795190D01*
X150780190Y-113676142D01*
X150804000Y-113628523D01*
X150827809Y-113604714D01*
X150875428Y-113580904D01*
X150923047Y-113580904D01*
X150994476Y-113604714D01*
X151280190Y-113890428D01*
X151280190Y-113580904D01*
X150946857Y-113152333D02*
X151280190Y-113152333D01*
X150756380Y-113271380D02*
X151113523Y-113390428D01*
X151113523Y-113080904D01*
X151280190Y-112652333D02*
X151280190Y-112890428D01*
X150780190Y-112890428D01*
X151232571Y-112199952D02*
X151256380Y-112223761D01*
X151280190Y-112295190D01*
X151280190Y-112342809D01*
X151256380Y-112414238D01*
X151208761Y-112461857D01*
X151161142Y-112485666D01*
X151065904Y-112509476D01*
X150994476Y-112509476D01*
X150899238Y-112485666D01*
X150851619Y-112461857D01*
X150804000Y-112414238D01*
X150780190Y-112342809D01*
X150780190Y-112295190D01*
X150804000Y-112223761D01*
X150827809Y-112199952D01*
X150780190Y-111747571D02*
X150780190Y-111985666D01*
X151018285Y-112009476D01*
X150994476Y-111985666D01*
X150970666Y-111938047D01*
X150970666Y-111819000D01*
X150994476Y-111771380D01*
X151018285Y-111747571D01*
X151065904Y-111723761D01*
X151184952Y-111723761D01*
X151232571Y-111747571D01*
X151256380Y-111771380D01*
X151280190Y-111819000D01*
X151280190Y-111938047D01*
X151256380Y-111985666D01*
X151232571Y-112009476D01*
X151280190Y-111247571D02*
X151280190Y-111533285D01*
X151280190Y-111390428D02*
X150780190Y-111390428D01*
X150851619Y-111438047D01*
X150899238Y-111485666D01*
X150923047Y-111533285D01*
X150827809Y-111057095D02*
X150804000Y-111033285D01*
X150780190Y-110985666D01*
X150780190Y-110866619D01*
X150804000Y-110819000D01*
X150827809Y-110795190D01*
X150875428Y-110771380D01*
X150923047Y-110771380D01*
X150994476Y-110795190D01*
X151280190Y-111080904D01*
X151280190Y-110771380D01*
X154580190Y-113090952D02*
X154984952Y-113090952D01*
X155032571Y-113067142D01*
X155056380Y-113043333D01*
X155080190Y-112995714D01*
X155080190Y-112900476D01*
X155056380Y-112852857D01*
X155032571Y-112829047D01*
X154984952Y-112805238D01*
X154580190Y-112805238D01*
X154627809Y-112590952D02*
X154604000Y-112567142D01*
X154580190Y-112519523D01*
X154580190Y-112400476D01*
X154604000Y-112352857D01*
X154627809Y-112329047D01*
X154675428Y-112305238D01*
X154723047Y-112305238D01*
X154794476Y-112329047D01*
X155080190Y-112614761D01*
X155080190Y-112305238D01*
%TO.C,C5*%
X125666000Y-106885809D02*
X125689809Y-106862000D01*
X125737428Y-106838190D01*
X125856476Y-106838190D01*
X125904095Y-106862000D01*
X125927904Y-106885809D01*
X125951714Y-106933428D01*
X125951714Y-106981047D01*
X125927904Y-107052476D01*
X125642190Y-107338190D01*
X125951714Y-107338190D01*
X126142190Y-106885809D02*
X126166000Y-106862000D01*
X126213619Y-106838190D01*
X126332666Y-106838190D01*
X126380285Y-106862000D01*
X126404095Y-106885809D01*
X126427904Y-106933428D01*
X126427904Y-106981047D01*
X126404095Y-107052476D01*
X126118380Y-107338190D01*
X126427904Y-107338190D01*
X126642190Y-107004857D02*
X126642190Y-107504857D01*
X126642190Y-107028666D02*
X126689809Y-107004857D01*
X126785047Y-107004857D01*
X126832666Y-107028666D01*
X126856476Y-107052476D01*
X126880285Y-107100095D01*
X126880285Y-107242952D01*
X126856476Y-107290571D01*
X126832666Y-107314380D01*
X126785047Y-107338190D01*
X126689809Y-107338190D01*
X126642190Y-107314380D01*
X127023142Y-107004857D02*
X127213619Y-107004857D01*
X127094571Y-107338190D02*
X127094571Y-106909619D01*
X127118380Y-106862000D01*
X127166000Y-106838190D01*
X127213619Y-106838190D01*
X124526666Y-106909571D02*
X124502857Y-106933380D01*
X124431428Y-106957190D01*
X124383809Y-106957190D01*
X124312380Y-106933380D01*
X124264761Y-106885761D01*
X124240952Y-106838142D01*
X124217142Y-106742904D01*
X124217142Y-106671476D01*
X124240952Y-106576238D01*
X124264761Y-106528619D01*
X124312380Y-106481000D01*
X124383809Y-106457190D01*
X124431428Y-106457190D01*
X124502857Y-106481000D01*
X124526666Y-106504809D01*
X124979047Y-106457190D02*
X124740952Y-106457190D01*
X124717142Y-106695285D01*
X124740952Y-106671476D01*
X124788571Y-106647666D01*
X124907619Y-106647666D01*
X124955238Y-106671476D01*
X124979047Y-106695285D01*
X125002857Y-106742904D01*
X125002857Y-106861952D01*
X124979047Y-106909571D01*
X124955238Y-106933380D01*
X124907619Y-106957190D01*
X124788571Y-106957190D01*
X124740952Y-106933380D01*
X124717142Y-106909571D01*
%TO.C,2.2mm*%
X159444000Y-102948809D02*
X159467809Y-102925000D01*
X159515428Y-102901190D01*
X159634476Y-102901190D01*
X159682095Y-102925000D01*
X159705904Y-102948809D01*
X159729714Y-102996428D01*
X159729714Y-103044047D01*
X159705904Y-103115476D01*
X159420190Y-103401190D01*
X159729714Y-103401190D01*
X159944000Y-103353571D02*
X159967809Y-103377380D01*
X159944000Y-103401190D01*
X159920190Y-103377380D01*
X159944000Y-103353571D01*
X159944000Y-103401190D01*
X160158285Y-102948809D02*
X160182095Y-102925000D01*
X160229714Y-102901190D01*
X160348761Y-102901190D01*
X160396380Y-102925000D01*
X160420190Y-102948809D01*
X160444000Y-102996428D01*
X160444000Y-103044047D01*
X160420190Y-103115476D01*
X160134476Y-103401190D01*
X160444000Y-103401190D01*
D10*
X154816666Y-103484619D02*
X154864285Y-103437000D01*
X154959523Y-103389380D01*
X155197619Y-103389380D01*
X155292857Y-103437000D01*
X155340476Y-103484619D01*
X155388095Y-103579857D01*
X155388095Y-103675095D01*
X155340476Y-103817952D01*
X154769047Y-104389380D01*
X155388095Y-104389380D01*
X155816666Y-104294142D02*
X155864285Y-104341761D01*
X155816666Y-104389380D01*
X155769047Y-104341761D01*
X155816666Y-104294142D01*
X155816666Y-104389380D01*
X156245238Y-103484619D02*
X156292857Y-103437000D01*
X156388095Y-103389380D01*
X156626190Y-103389380D01*
X156721428Y-103437000D01*
X156769047Y-103484619D01*
X156816666Y-103579857D01*
X156816666Y-103675095D01*
X156769047Y-103817952D01*
X156197619Y-104389380D01*
X156816666Y-104389380D01*
X157245238Y-104389380D02*
X157245238Y-103722714D01*
X157245238Y-103817952D02*
X157292857Y-103770333D01*
X157388095Y-103722714D01*
X157530952Y-103722714D01*
X157626190Y-103770333D01*
X157673809Y-103865571D01*
X157673809Y-104389380D01*
X157673809Y-103865571D02*
X157721428Y-103770333D01*
X157816666Y-103722714D01*
X157959523Y-103722714D01*
X158054761Y-103770333D01*
X158102380Y-103865571D01*
X158102380Y-104389380D01*
X158578571Y-104389380D02*
X158578571Y-103722714D01*
X158578571Y-103817952D02*
X158626190Y-103770333D01*
X158721428Y-103722714D01*
X158864285Y-103722714D01*
X158959523Y-103770333D01*
X159007142Y-103865571D01*
X159007142Y-104389380D01*
X159007142Y-103865571D02*
X159054761Y-103770333D01*
X159150000Y-103722714D01*
X159292857Y-103722714D01*
X159388095Y-103770333D01*
X159435714Y-103865571D01*
X159435714Y-104389380D01*
D13*
%TO.C,J3-*%
X111735142Y-125019142D02*
X112378000Y-125019142D01*
X112506571Y-125062000D01*
X112592285Y-125147714D01*
X112635142Y-125276285D01*
X112635142Y-125362000D01*
X111735142Y-124676285D02*
X111735142Y-124119142D01*
X112078000Y-124419142D01*
X112078000Y-124290571D01*
X112120857Y-124204857D01*
X112163714Y-124162000D01*
X112249428Y-124119142D01*
X112463714Y-124119142D01*
X112549428Y-124162000D01*
X112592285Y-124204857D01*
X112635142Y-124290571D01*
X112635142Y-124547714D01*
X112592285Y-124633428D01*
X112549428Y-124676285D01*
X112292285Y-123733428D02*
X112292285Y-123047714D01*
D12*
%TO.C,TP(uc)*%
X147867142Y-123882190D02*
X148152857Y-123882190D01*
X148010000Y-124382190D02*
X148010000Y-123882190D01*
X148319523Y-124382190D02*
X148319523Y-123882190D01*
X148510000Y-123882190D01*
X148557619Y-123906000D01*
X148581428Y-123929809D01*
X148605238Y-123977428D01*
X148605238Y-124048857D01*
X148581428Y-124096476D01*
X148557619Y-124120285D01*
X148510000Y-124144095D01*
X148319523Y-124144095D01*
D10*
%TO.C,J1*%
X139858666Y-122590380D02*
X139858666Y-123304666D01*
X139811047Y-123447523D01*
X139715809Y-123542761D01*
X139572952Y-123590380D01*
X139477714Y-123590380D01*
X140858666Y-123590380D02*
X140287238Y-123590380D01*
X140572952Y-123590380D02*
X140572952Y-122590380D01*
X140477714Y-122733238D01*
X140382476Y-122828476D01*
X140287238Y-122876095D01*
D12*
%TO.C,R1*%
X128642476Y-118768190D02*
X128356761Y-118768190D01*
X128499619Y-118768190D02*
X128499619Y-118268190D01*
X128452000Y-118339619D01*
X128404380Y-118387238D01*
X128356761Y-118411047D01*
X128856761Y-118768190D02*
X128856761Y-118268190D01*
X128904380Y-118577714D02*
X129047238Y-118768190D01*
X129047238Y-118434857D02*
X128856761Y-118625333D01*
X127912190Y-119133333D02*
X127674095Y-119300000D01*
X127912190Y-119419047D02*
X127412190Y-119419047D01*
X127412190Y-119228571D01*
X127436000Y-119180952D01*
X127459809Y-119157142D01*
X127507428Y-119133333D01*
X127578857Y-119133333D01*
X127626476Y-119157142D01*
X127650285Y-119180952D01*
X127674095Y-119228571D01*
X127674095Y-119419047D01*
X127912190Y-118657142D02*
X127912190Y-118942857D01*
X127912190Y-118800000D02*
X127412190Y-118800000D01*
X127483619Y-118847619D01*
X127531238Y-118895238D01*
X127555047Y-118942857D01*
%TO.C,TP(uc)*%
X150407142Y-123882190D02*
X150692857Y-123882190D01*
X150550000Y-124382190D02*
X150550000Y-123882190D01*
X150859523Y-124382190D02*
X150859523Y-123882190D01*
X151050000Y-123882190D01*
X151097619Y-123906000D01*
X151121428Y-123929809D01*
X151145238Y-123977428D01*
X151145238Y-124048857D01*
X151121428Y-124096476D01*
X151097619Y-124120285D01*
X151050000Y-124144095D01*
X150859523Y-124144095D01*
%TO.C,TP(12)*%
X118776190Y-104964857D02*
X118776190Y-104679142D01*
X119276190Y-104822000D02*
X118776190Y-104822000D01*
X119276190Y-104512476D02*
X118776190Y-104512476D01*
X118776190Y-104322000D01*
X118800000Y-104274380D01*
X118823809Y-104250571D01*
X118871428Y-104226761D01*
X118942857Y-104226761D01*
X118990476Y-104250571D01*
X119014285Y-104274380D01*
X119038095Y-104322000D01*
X119038095Y-104512476D01*
%TO.C,TP(19)*%
X130087142Y-120834190D02*
X130372857Y-120834190D01*
X130230000Y-121334190D02*
X130230000Y-120834190D01*
X130539523Y-121334190D02*
X130539523Y-120834190D01*
X130730000Y-120834190D01*
X130777619Y-120858000D01*
X130801428Y-120881809D01*
X130825238Y-120929428D01*
X130825238Y-121000857D01*
X130801428Y-121048476D01*
X130777619Y-121072285D01*
X130730000Y-121096095D01*
X130539523Y-121096095D01*
%TO.C,TP(4)*%
X138723142Y-103282190D02*
X139008857Y-103282190D01*
X138866000Y-103782190D02*
X138866000Y-103282190D01*
X139175523Y-103782190D02*
X139175523Y-103282190D01*
X139366000Y-103282190D01*
X139413619Y-103306000D01*
X139437428Y-103329809D01*
X139461238Y-103377428D01*
X139461238Y-103448857D01*
X139437428Y-103496476D01*
X139413619Y-103520285D01*
X139366000Y-103544095D01*
X139175523Y-103544095D01*
X138405714Y-104118190D02*
X138691428Y-104118190D01*
X138548571Y-104618190D02*
X138548571Y-104118190D01*
X138858095Y-104618190D02*
X138858095Y-104118190D01*
X139048571Y-104118190D01*
X139096190Y-104142000D01*
X139120000Y-104165809D01*
X139143809Y-104213428D01*
X139143809Y-104284857D01*
X139120000Y-104332476D01*
X139096190Y-104356285D01*
X139048571Y-104380095D01*
X138858095Y-104380095D01*
X139500952Y-104808666D02*
X139477142Y-104784857D01*
X139429523Y-104713428D01*
X139405714Y-104665809D01*
X139381904Y-104594380D01*
X139358095Y-104475333D01*
X139358095Y-104380095D01*
X139381904Y-104261047D01*
X139405714Y-104189619D01*
X139429523Y-104142000D01*
X139477142Y-104070571D01*
X139500952Y-104046761D01*
X139905714Y-104284857D02*
X139905714Y-104618190D01*
X139786666Y-104094380D02*
X139667619Y-104451523D01*
X139977142Y-104451523D01*
X140120000Y-104808666D02*
X140143809Y-104784857D01*
X140191428Y-104713428D01*
X140215238Y-104665809D01*
X140239047Y-104594380D01*
X140262857Y-104475333D01*
X140262857Y-104380095D01*
X140239047Y-104261047D01*
X140215238Y-104189619D01*
X140191428Y-104142000D01*
X140143809Y-104070571D01*
X140120000Y-104046761D01*
%TO.C,TP(24)*%
X135421142Y-119538190D02*
X135706857Y-119538190D01*
X135564000Y-120038190D02*
X135564000Y-119538190D01*
X135873523Y-120038190D02*
X135873523Y-119538190D01*
X136064000Y-119538190D01*
X136111619Y-119562000D01*
X136135428Y-119585809D01*
X136159238Y-119633428D01*
X136159238Y-119704857D01*
X136135428Y-119752476D01*
X136111619Y-119776285D01*
X136064000Y-119800095D01*
X135873523Y-119800095D01*
%TO.C,TP(25)*%
X137707142Y-119538190D02*
X137992857Y-119538190D01*
X137850000Y-120038190D02*
X137850000Y-119538190D01*
X138159523Y-120038190D02*
X138159523Y-119538190D01*
X138350000Y-119538190D01*
X138397619Y-119562000D01*
X138421428Y-119585809D01*
X138445238Y-119633428D01*
X138445238Y-119704857D01*
X138421428Y-119752476D01*
X138397619Y-119776285D01*
X138350000Y-119800095D01*
X138159523Y-119800095D01*
%TO.C,TP(uc)*%
X152947142Y-123882190D02*
X153232857Y-123882190D01*
X153090000Y-124382190D02*
X153090000Y-123882190D01*
X153399523Y-124382190D02*
X153399523Y-123882190D01*
X153590000Y-123882190D01*
X153637619Y-123906000D01*
X153661428Y-123929809D01*
X153685238Y-123977428D01*
X153685238Y-124048857D01*
X153661428Y-124096476D01*
X153637619Y-124120285D01*
X153590000Y-124144095D01*
X153399523Y-124144095D01*
%TO.C,Y1*%
X125677142Y-104496571D02*
X125653333Y-104520380D01*
X125581904Y-104544190D01*
X125534285Y-104544190D01*
X125462857Y-104520380D01*
X125415238Y-104472761D01*
X125391428Y-104425142D01*
X125367619Y-104329904D01*
X125367619Y-104258476D01*
X125391428Y-104163238D01*
X125415238Y-104115619D01*
X125462857Y-104068000D01*
X125534285Y-104044190D01*
X125581904Y-104044190D01*
X125653333Y-104068000D01*
X125677142Y-104091809D01*
X125891428Y-104544190D02*
X125891428Y-104210857D01*
X125891428Y-104306095D02*
X125915238Y-104258476D01*
X125939047Y-104234666D01*
X125986666Y-104210857D01*
X126034285Y-104210857D01*
X126153333Y-104210857D02*
X126272380Y-104544190D01*
X126391428Y-104210857D02*
X126272380Y-104544190D01*
X126224761Y-104663238D01*
X126200952Y-104687047D01*
X126153333Y-104710857D01*
X126558095Y-104520380D02*
X126605714Y-104544190D01*
X126700952Y-104544190D01*
X126748571Y-104520380D01*
X126772380Y-104472761D01*
X126772380Y-104448952D01*
X126748571Y-104401333D01*
X126700952Y-104377523D01*
X126629523Y-104377523D01*
X126581904Y-104353714D01*
X126558095Y-104306095D01*
X126558095Y-104282285D01*
X126581904Y-104234666D01*
X126629523Y-104210857D01*
X126700952Y-104210857D01*
X126748571Y-104234666D01*
X126915238Y-104210857D02*
X127105714Y-104210857D01*
X126986666Y-104044190D02*
X126986666Y-104472761D01*
X127010476Y-104520380D01*
X127058095Y-104544190D01*
X127105714Y-104544190D01*
X127486666Y-104544190D02*
X127486666Y-104282285D01*
X127462857Y-104234666D01*
X127415238Y-104210857D01*
X127320000Y-104210857D01*
X127272380Y-104234666D01*
X127486666Y-104520380D02*
X127439047Y-104544190D01*
X127320000Y-104544190D01*
X127272380Y-104520380D01*
X127248571Y-104472761D01*
X127248571Y-104425142D01*
X127272380Y-104377523D01*
X127320000Y-104353714D01*
X127439047Y-104353714D01*
X127486666Y-104329904D01*
X127796190Y-104544190D02*
X127748571Y-104520380D01*
X127724761Y-104472761D01*
X127724761Y-104044190D01*
X126331904Y-103290095D02*
X126331904Y-103528190D01*
X126165238Y-103028190D02*
X126331904Y-103290095D01*
X126498571Y-103028190D01*
X126927142Y-103528190D02*
X126641428Y-103528190D01*
X126784285Y-103528190D02*
X126784285Y-103028190D01*
X126736666Y-103099619D01*
X126689047Y-103147238D01*
X126641428Y-103171047D01*
D14*
%TO.C,J4*%
X109759904Y-113944476D02*
X108959904Y-113944476D01*
X108959904Y-113639714D01*
X108998000Y-113563523D01*
X109036095Y-113525428D01*
X109112285Y-113487333D01*
X109226571Y-113487333D01*
X109302761Y-113525428D01*
X109340857Y-113563523D01*
X109378952Y-113639714D01*
X109378952Y-113944476D01*
X109759904Y-113030190D02*
X109721809Y-113106380D01*
X109683714Y-113144476D01*
X109607523Y-113182571D01*
X109378952Y-113182571D01*
X109302761Y-113144476D01*
X109264666Y-113106380D01*
X109226571Y-113030190D01*
X109226571Y-112915904D01*
X109264666Y-112839714D01*
X109302761Y-112801619D01*
X109378952Y-112763523D01*
X109607523Y-112763523D01*
X109683714Y-112801619D01*
X109721809Y-112839714D01*
X109759904Y-112915904D01*
X109759904Y-113030190D01*
X109226571Y-112496857D02*
X109759904Y-112344476D01*
X109378952Y-112192095D01*
X109759904Y-112039714D01*
X109226571Y-111887333D01*
D12*
X110394190Y-113120666D02*
X110751333Y-113120666D01*
X110822761Y-113144476D01*
X110870380Y-113192095D01*
X110894190Y-113263523D01*
X110894190Y-113311142D01*
X110560857Y-112668285D02*
X110894190Y-112668285D01*
X110370380Y-112787333D02*
X110727523Y-112906380D01*
X110727523Y-112596857D01*
%TO.C,TP(7)*%
X136691142Y-103028190D02*
X136976857Y-103028190D01*
X136834000Y-103528190D02*
X136834000Y-103028190D01*
X137143523Y-103528190D02*
X137143523Y-103028190D01*
X137334000Y-103028190D01*
X137381619Y-103052000D01*
X137405428Y-103075809D01*
X137429238Y-103123428D01*
X137429238Y-103194857D01*
X137405428Y-103242476D01*
X137381619Y-103266285D01*
X137334000Y-103290095D01*
X137143523Y-103290095D01*
X136119714Y-104118190D02*
X136405428Y-104118190D01*
X136262571Y-104618190D02*
X136262571Y-104118190D01*
X136572095Y-104618190D02*
X136572095Y-104118190D01*
X136762571Y-104118190D01*
X136810190Y-104142000D01*
X136834000Y-104165809D01*
X136857809Y-104213428D01*
X136857809Y-104284857D01*
X136834000Y-104332476D01*
X136810190Y-104356285D01*
X136762571Y-104380095D01*
X136572095Y-104380095D01*
X137214952Y-104808666D02*
X137191142Y-104784857D01*
X137143523Y-104713428D01*
X137119714Y-104665809D01*
X137095904Y-104594380D01*
X137072095Y-104475333D01*
X137072095Y-104380095D01*
X137095904Y-104261047D01*
X137119714Y-104189619D01*
X137143523Y-104142000D01*
X137191142Y-104070571D01*
X137214952Y-104046761D01*
X137357809Y-104118190D02*
X137691142Y-104118190D01*
X137476857Y-104618190D01*
X137834000Y-104808666D02*
X137857809Y-104784857D01*
X137905428Y-104713428D01*
X137929238Y-104665809D01*
X137953047Y-104594380D01*
X137976857Y-104475333D01*
X137976857Y-104380095D01*
X137953047Y-104261047D01*
X137929238Y-104189619D01*
X137905428Y-104142000D01*
X137857809Y-104070571D01*
X137834000Y-104046761D01*
%TO.C,2.2mm*%
X108898000Y-101170809D02*
X108921809Y-101147000D01*
X108969428Y-101123190D01*
X109088476Y-101123190D01*
X109136095Y-101147000D01*
X109159904Y-101170809D01*
X109183714Y-101218428D01*
X109183714Y-101266047D01*
X109159904Y-101337476D01*
X108874190Y-101623190D01*
X109183714Y-101623190D01*
X109398000Y-101575571D02*
X109421809Y-101599380D01*
X109398000Y-101623190D01*
X109374190Y-101599380D01*
X109398000Y-101575571D01*
X109398000Y-101623190D01*
X109612285Y-101170809D02*
X109636095Y-101147000D01*
X109683714Y-101123190D01*
X109802761Y-101123190D01*
X109850380Y-101147000D01*
X109874190Y-101170809D01*
X109898000Y-101218428D01*
X109898000Y-101266047D01*
X109874190Y-101337476D01*
X109588476Y-101623190D01*
X109898000Y-101623190D01*
D10*
X107064666Y-103484619D02*
X107112285Y-103437000D01*
X107207523Y-103389380D01*
X107445619Y-103389380D01*
X107540857Y-103437000D01*
X107588476Y-103484619D01*
X107636095Y-103579857D01*
X107636095Y-103675095D01*
X107588476Y-103817952D01*
X107017047Y-104389380D01*
X107636095Y-104389380D01*
X108064666Y-104294142D02*
X108112285Y-104341761D01*
X108064666Y-104389380D01*
X108017047Y-104341761D01*
X108064666Y-104294142D01*
X108064666Y-104389380D01*
X108493238Y-103484619D02*
X108540857Y-103437000D01*
X108636095Y-103389380D01*
X108874190Y-103389380D01*
X108969428Y-103437000D01*
X109017047Y-103484619D01*
X109064666Y-103579857D01*
X109064666Y-103675095D01*
X109017047Y-103817952D01*
X108445619Y-104389380D01*
X109064666Y-104389380D01*
X109493238Y-104389380D02*
X109493238Y-103722714D01*
X109493238Y-103817952D02*
X109540857Y-103770333D01*
X109636095Y-103722714D01*
X109778952Y-103722714D01*
X109874190Y-103770333D01*
X109921809Y-103865571D01*
X109921809Y-104389380D01*
X109921809Y-103865571D02*
X109969428Y-103770333D01*
X110064666Y-103722714D01*
X110207523Y-103722714D01*
X110302761Y-103770333D01*
X110350380Y-103865571D01*
X110350380Y-104389380D01*
X110826571Y-104389380D02*
X110826571Y-103722714D01*
X110826571Y-103817952D02*
X110874190Y-103770333D01*
X110969428Y-103722714D01*
X111112285Y-103722714D01*
X111207523Y-103770333D01*
X111255142Y-103865571D01*
X111255142Y-104389380D01*
X111255142Y-103865571D02*
X111302761Y-103770333D01*
X111398000Y-103722714D01*
X111540857Y-103722714D01*
X111636095Y-103770333D01*
X111683714Y-103865571D01*
X111683714Y-104389380D01*
D12*
%TO.C,D1*%
X125586571Y-121054190D02*
X125348476Y-121054190D01*
X125348476Y-120554190D01*
X125753238Y-120792285D02*
X125919904Y-120792285D01*
X125991333Y-121054190D02*
X125753238Y-121054190D01*
X125753238Y-120554190D01*
X125991333Y-120554190D01*
X126205619Y-121054190D02*
X126205619Y-120554190D01*
X126324666Y-120554190D01*
X126396095Y-120578000D01*
X126443714Y-120625619D01*
X126467523Y-120673238D01*
X126491333Y-120768476D01*
X126491333Y-120839904D01*
X126467523Y-120935142D01*
X126443714Y-120982761D01*
X126396095Y-121030380D01*
X126324666Y-121054190D01*
X126205619Y-121054190D01*
X124776952Y-119530190D02*
X124776952Y-119030190D01*
X124896000Y-119030190D01*
X124967428Y-119054000D01*
X125015047Y-119101619D01*
X125038857Y-119149238D01*
X125062666Y-119244476D01*
X125062666Y-119315904D01*
X125038857Y-119411142D01*
X125015047Y-119458761D01*
X124967428Y-119506380D01*
X124896000Y-119530190D01*
X124776952Y-119530190D01*
X125538857Y-119530190D02*
X125253142Y-119530190D01*
X125396000Y-119530190D02*
X125396000Y-119030190D01*
X125348380Y-119101619D01*
X125300761Y-119149238D01*
X125253142Y-119173047D01*
%TO.C,R4*%
X155518857Y-119768285D02*
X155852190Y-119768285D01*
X155328380Y-119887333D02*
X155685523Y-120006380D01*
X155685523Y-119696857D01*
X155804571Y-119506380D02*
X155828380Y-119482571D01*
X155852190Y-119506380D01*
X155828380Y-119530190D01*
X155804571Y-119506380D01*
X155852190Y-119506380D01*
X155352190Y-119315904D02*
X155352190Y-118982571D01*
X155852190Y-119196857D01*
X155852190Y-118792095D02*
X155352190Y-118792095D01*
X155661714Y-118744476D02*
X155852190Y-118601619D01*
X155518857Y-118601619D02*
X155709333Y-118792095D01*
X153820190Y-119260333D02*
X153582095Y-119427000D01*
X153820190Y-119546047D02*
X153320190Y-119546047D01*
X153320190Y-119355571D01*
X153344000Y-119307952D01*
X153367809Y-119284142D01*
X153415428Y-119260333D01*
X153486857Y-119260333D01*
X153534476Y-119284142D01*
X153558285Y-119307952D01*
X153582095Y-119355571D01*
X153582095Y-119546047D01*
X153486857Y-118831761D02*
X153820190Y-118831761D01*
X153296380Y-118950809D02*
X153653523Y-119069857D01*
X153653523Y-118760333D01*
D13*
%TO.C,J2*%
X143134000Y-101793142D02*
X143134000Y-102436000D01*
X143091142Y-102564571D01*
X143005428Y-102650285D01*
X142876857Y-102693142D01*
X142791142Y-102693142D01*
X143519714Y-101878857D02*
X143562571Y-101836000D01*
X143648285Y-101793142D01*
X143862571Y-101793142D01*
X143948285Y-101836000D01*
X143991142Y-101878857D01*
X144034000Y-101964571D01*
X144034000Y-102050285D01*
X143991142Y-102178857D01*
X143476857Y-102693142D01*
X144034000Y-102693142D01*
D12*
%TO.C,U1*%
X114053333Y-115283333D02*
X114053333Y-115045238D01*
X114196190Y-115330952D02*
X113696190Y-115164285D01*
X114196190Y-114997619D01*
X113696190Y-114902380D02*
X113696190Y-114616666D01*
X114196190Y-114759523D02*
X113696190Y-114759523D01*
X114196190Y-114450000D02*
X113862857Y-114450000D01*
X113910476Y-114450000D02*
X113886666Y-114426190D01*
X113862857Y-114378571D01*
X113862857Y-114307142D01*
X113886666Y-114259523D01*
X113934285Y-114235714D01*
X114196190Y-114235714D01*
X113934285Y-114235714D02*
X113886666Y-114211904D01*
X113862857Y-114164285D01*
X113862857Y-114092857D01*
X113886666Y-114045238D01*
X113934285Y-114021428D01*
X114196190Y-114021428D01*
X114172380Y-113592857D02*
X114196190Y-113640476D01*
X114196190Y-113735714D01*
X114172380Y-113783333D01*
X114124761Y-113807142D01*
X113934285Y-113807142D01*
X113886666Y-113783333D01*
X113862857Y-113735714D01*
X113862857Y-113640476D01*
X113886666Y-113592857D01*
X113934285Y-113569047D01*
X113981904Y-113569047D01*
X114029523Y-113807142D01*
X113862857Y-113140476D02*
X114267619Y-113140476D01*
X114315238Y-113164285D01*
X114339047Y-113188095D01*
X114362857Y-113235714D01*
X114362857Y-113307142D01*
X114339047Y-113354761D01*
X114172380Y-113140476D02*
X114196190Y-113188095D01*
X114196190Y-113283333D01*
X114172380Y-113330952D01*
X114148571Y-113354761D01*
X114100952Y-113378571D01*
X113958095Y-113378571D01*
X113910476Y-113354761D01*
X113886666Y-113330952D01*
X113862857Y-113283333D01*
X113862857Y-113188095D01*
X113886666Y-113140476D01*
X114196190Y-112688095D02*
X113934285Y-112688095D01*
X113886666Y-112711904D01*
X113862857Y-112759523D01*
X113862857Y-112854761D01*
X113886666Y-112902380D01*
X114172380Y-112688095D02*
X114196190Y-112735714D01*
X114196190Y-112854761D01*
X114172380Y-112902380D01*
X114124761Y-112926190D01*
X114077142Y-112926190D01*
X114029523Y-112902380D01*
X114005714Y-112854761D01*
X114005714Y-112735714D01*
X113981904Y-112688095D01*
X113696190Y-112497619D02*
X113696190Y-112188095D01*
X113886666Y-112354761D01*
X113886666Y-112283333D01*
X113910476Y-112235714D01*
X113934285Y-112211904D01*
X113981904Y-112188095D01*
X114100952Y-112188095D01*
X114148571Y-112211904D01*
X114172380Y-112235714D01*
X114196190Y-112283333D01*
X114196190Y-112426190D01*
X114172380Y-112473809D01*
X114148571Y-112497619D01*
X113743809Y-111997619D02*
X113720000Y-111973809D01*
X113696190Y-111926190D01*
X113696190Y-111807142D01*
X113720000Y-111759523D01*
X113743809Y-111735714D01*
X113791428Y-111711904D01*
X113839047Y-111711904D01*
X113910476Y-111735714D01*
X114196190Y-112021428D01*
X114196190Y-111711904D01*
X113910476Y-111426190D02*
X113886666Y-111473809D01*
X113862857Y-111497619D01*
X113815238Y-111521428D01*
X113791428Y-111521428D01*
X113743809Y-111497619D01*
X113720000Y-111473809D01*
X113696190Y-111426190D01*
X113696190Y-111330952D01*
X113720000Y-111283333D01*
X113743809Y-111259523D01*
X113791428Y-111235714D01*
X113815238Y-111235714D01*
X113862857Y-111259523D01*
X113886666Y-111283333D01*
X113910476Y-111330952D01*
X113910476Y-111426190D01*
X113934285Y-111473809D01*
X113958095Y-111497619D01*
X114005714Y-111521428D01*
X114100952Y-111521428D01*
X114148571Y-111497619D01*
X114172380Y-111473809D01*
X114196190Y-111426190D01*
X114196190Y-111330952D01*
X114172380Y-111283333D01*
X114148571Y-111259523D01*
X114100952Y-111235714D01*
X114005714Y-111235714D01*
X113958095Y-111259523D01*
X113934285Y-111283333D01*
X113910476Y-111330952D01*
X114005714Y-111021428D02*
X114005714Y-110640476D01*
X114196190Y-110402380D02*
X113696190Y-110402380D01*
X113696190Y-110211904D01*
X113720000Y-110164285D01*
X113743809Y-110140476D01*
X113791428Y-110116666D01*
X113862857Y-110116666D01*
X113910476Y-110140476D01*
X113934285Y-110164285D01*
X113958095Y-110211904D01*
X113958095Y-110402380D01*
X136048190Y-112826952D02*
X136452952Y-112826952D01*
X136500571Y-112803142D01*
X136524380Y-112779333D01*
X136548190Y-112731714D01*
X136548190Y-112636476D01*
X136524380Y-112588857D01*
X136500571Y-112565047D01*
X136452952Y-112541238D01*
X136048190Y-112541238D01*
X136548190Y-112041238D02*
X136548190Y-112326952D01*
X136548190Y-112184095D02*
X136048190Y-112184095D01*
X136119619Y-112231714D01*
X136167238Y-112279333D01*
X136191047Y-112326952D01*
%TO.C,TP(13)*%
X116109190Y-104964857D02*
X116109190Y-104679142D01*
X116609190Y-104822000D02*
X116109190Y-104822000D01*
X116609190Y-104512476D02*
X116109190Y-104512476D01*
X116109190Y-104322000D01*
X116133000Y-104274380D01*
X116156809Y-104250571D01*
X116204428Y-104226761D01*
X116275857Y-104226761D01*
X116323476Y-104250571D01*
X116347285Y-104274380D01*
X116371095Y-104322000D01*
X116371095Y-104512476D01*
D11*
%TO.C,C4*%
X129456000Y-106981000D02*
X128456000Y-106981000D01*
X128456000Y-106481000D02*
X129456000Y-106481000D01*
X128456000Y-106981000D02*
X128456000Y-106481000D01*
X129456000Y-106481000D02*
X129456000Y-106981000D01*
%TO.C,R3*%
X151324000Y-119702000D02*
X150784000Y-119702000D01*
X150784000Y-119702000D02*
X150784000Y-118652000D01*
X150784000Y-118652000D02*
X151324000Y-118652000D01*
X151324000Y-118652000D02*
X151324000Y-119702000D01*
%TO.C,J5+*%
X108950000Y-122212500D02*
X108950000Y-126712500D01*
X108950000Y-126712500D02*
X107825000Y-126712500D01*
X107450000Y-122212500D02*
X108950000Y-122212500D01*
X107450000Y-126337500D02*
X107450000Y-122212500D01*
X107825000Y-126712500D02*
X107450000Y-126337500D01*
%TO.C,U2*%
X158934000Y-109535000D02*
X159934000Y-110535000D01*
X159994000Y-107630000D02*
X149714000Y-107630000D01*
X149774000Y-115885000D02*
X149774000Y-109535000D01*
X159934000Y-110535000D02*
X159934000Y-115885000D01*
X159994000Y-117790000D02*
X159994000Y-107630000D01*
X159934000Y-115885000D02*
X149774000Y-115885000D01*
X149774000Y-109535000D02*
X158934000Y-109535000D01*
X149714000Y-107630000D02*
X149714000Y-117790000D01*
X149714000Y-117790000D02*
X159994000Y-117790000D01*
%TO.C,C5*%
X125110000Y-106481000D02*
X125110000Y-106981000D01*
X124110000Y-106481000D02*
X125110000Y-106481000D01*
X125110000Y-106981000D02*
X124110000Y-106981000D01*
X124110000Y-106981000D02*
X124110000Y-106481000D01*
%TO.C,J3-*%
X111478000Y-126537000D02*
X111478000Y-121412000D01*
X111853000Y-126912000D02*
X111478000Y-126537000D01*
X112978000Y-126912000D02*
X111853000Y-126912000D01*
X112978000Y-121412000D02*
X112978000Y-126912000D01*
X111478000Y-121412000D02*
X112978000Y-121412000D01*
%TO.C,J1*%
X146442000Y-126238000D02*
X146442000Y-122438000D01*
X146852000Y-124528000D02*
X146852000Y-122028000D01*
X146442000Y-122438000D02*
X133942000Y-122438000D01*
X133942000Y-122438000D02*
X133942000Y-126238000D01*
X133942000Y-126238000D02*
X146442000Y-126238000D01*
X146852000Y-122028000D02*
X144352000Y-122028000D01*
%TO.C,R1*%
X127416000Y-118525000D02*
X127956000Y-118525000D01*
X127956000Y-119575000D02*
X127416000Y-119575000D01*
X127956000Y-118525000D02*
X127956000Y-119575000D01*
X127416000Y-119575000D02*
X127416000Y-118525000D01*
%TO.C,SW1*%
X144184000Y-105334000D02*
G75*
G03*
X144184000Y-105334000I-750000J0D01*
G01*
X144934000Y-104084000D02*
X144934000Y-106584000D01*
X141934000Y-104084000D02*
X144934000Y-104084000D01*
X141934000Y-106584000D02*
X141934000Y-104084000D01*
X144934000Y-106584000D02*
X141934000Y-106584000D01*
%TO.C,Y1*%
X123570000Y-105302000D02*
X129570000Y-105302000D01*
X123570000Y-101302000D02*
X129570000Y-101302000D01*
X123370000Y-105627000D02*
X129770000Y-105627000D01*
X123370000Y-100977000D02*
X129770000Y-100977000D01*
X123370000Y-100977000D02*
G75*
G03*
X123370000Y-105627000I0J-2325000D01*
G01*
X123570000Y-101302000D02*
G75*
G03*
X123570000Y-105302000I0J-2000000D01*
G01*
X129570000Y-105302000D02*
G75*
G03*
X129570000Y-101302000I0J2000000D01*
G01*
X129770000Y-105627000D02*
G75*
G03*
X129770000Y-100977000I0J2325000D01*
G01*
%TO.C,D1*%
X124146000Y-119904000D02*
X125846000Y-119904000D01*
X124146000Y-118704000D02*
X124146000Y-119904000D01*
X126146000Y-119604000D02*
X126146000Y-118704000D01*
X125846000Y-119904000D02*
X126146000Y-119604000D01*
X126146000Y-118704000D02*
X124146000Y-118704000D01*
%TO.C,R4*%
X153324000Y-118652000D02*
X153864000Y-118652000D01*
X153864000Y-118652000D02*
X153864000Y-119702000D01*
X153324000Y-119702000D02*
X153324000Y-118652000D01*
X153864000Y-119702000D02*
X153324000Y-119702000D01*
%TO.C,J2*%
X140684000Y-103036000D02*
X140684000Y-101536000D01*
X145809000Y-103036000D02*
X140684000Y-103036000D01*
X146184000Y-101536000D02*
X146184000Y-102661000D01*
X140684000Y-101536000D02*
X146184000Y-101536000D01*
X146184000Y-102661000D02*
X145809000Y-103036000D01*
%TO.C,U1*%
X112700000Y-115875000D02*
X112700000Y-109525000D01*
X112700000Y-109525000D02*
X147260000Y-109525000D01*
X148320000Y-107620000D02*
X112640000Y-107620000D01*
X148260000Y-110525000D02*
X148260000Y-115875000D01*
X148260000Y-115875000D02*
X112700000Y-115875000D01*
X148320000Y-117780000D02*
X148320000Y-107620000D01*
X112640000Y-107620000D02*
X112640000Y-117780000D01*
X112640000Y-117780000D02*
X148320000Y-117780000D01*
X147260000Y-109525000D02*
X148260000Y-110525000D01*
%TD*%
M02*
