%TF.GenerationSoftware,KiCad,Pcbnew,(6.0.8)*%
%TF.CreationDate,2023-03-24T12:53:59-04:00*%
%TF.ProjectId,Amicro_tst,416d6963-726f-45f7-9473-742e6b696361,rev?*%
%TF.SameCoordinates,Original*%
%TF.FileFunction,Copper,L1,Top*%
%TF.FilePolarity,Positive*%
%FSLAX46Y46*%
G04 Gerber Fmt 4.6, Leading zero omitted, Abs format (unit mm)*
G04 Created by KiCad (PCBNEW (6.0.8)) date 2023-03-24 12:53:59*
%MOMM*%
%LPD*%
G01*
G04 APERTURE LIST*
G04 Aperture macros list*
%AMRoundRect*
0 Rectangle with rounded corners*
0 $1 Rounding radius*
0 $2 $3 $4 $5 $6 $7 $8 $9 X,Y pos of 4 corners*
0 Add a 4 corners polygon primitive as box body*
4,1,4,$2,$3,$4,$5,$6,$7,$8,$9,$2,$3,0*
0 Add four circle primitives for the rounded corners*
1,1,$1+$1,$2,$3*
1,1,$1+$1,$4,$5*
1,1,$1+$1,$6,$7*
1,1,$1+$1,$8,$9*
0 Add four rect primitives between the rounded corners*
20,1,$1+$1,$2,$3,$4,$5,0*
20,1,$1+$1,$4,$5,$6,$7,0*
20,1,$1+$1,$6,$7,$8,$9,0*
20,1,$1+$1,$8,$9,$2,$3,0*%
G04 Aperture macros list end*
%TA.AperFunction,ComponentPad*%
%ADD10R,1.000000X1.000000*%
%TD*%
%TA.AperFunction,SMDPad,CuDef*%
%ADD11RoundRect,0.140000X-0.140000X-0.170000X0.140000X-0.170000X0.140000X0.170000X-0.140000X0.170000X0*%
%TD*%
%TA.AperFunction,ComponentPad*%
%ADD12C,3.800000*%
%TD*%
%TA.AperFunction,SMDPad,CuDef*%
%ADD13RoundRect,0.135000X-0.185000X0.135000X-0.185000X-0.135000X0.185000X-0.135000X0.185000X0.135000X0*%
%TD*%
%TA.AperFunction,ComponentPad*%
%ADD14R,0.850000X0.850000*%
%TD*%
%TA.AperFunction,ComponentPad*%
%ADD15O,0.850000X0.850000*%
%TD*%
%TA.AperFunction,ComponentPad*%
%ADD16R,1.600000X1.600000*%
%TD*%
%TA.AperFunction,ComponentPad*%
%ADD17O,1.600000X1.600000*%
%TD*%
%TA.AperFunction,ComponentPad*%
%ADD18RoundRect,0.250000X0.600000X0.725000X-0.600000X0.725000X-0.600000X-0.725000X0.600000X-0.725000X0*%
%TD*%
%TA.AperFunction,ComponentPad*%
%ADD19O,1.700000X1.950000*%
%TD*%
%TA.AperFunction,SMDPad,CuDef*%
%ADD20R,0.900000X1.700000*%
%TD*%
%TA.AperFunction,ComponentPad*%
%ADD21C,1.500000*%
%TD*%
%TA.AperFunction,ComponentPad*%
%ADD22RoundRect,0.650000X0.650000X-0.650000X0.650000X0.650000X-0.650000X0.650000X-0.650000X-0.650000X0*%
%TD*%
%TA.AperFunction,ComponentPad*%
%ADD23C,2.600000*%
%TD*%
%TA.AperFunction,SMDPad,CuDef*%
%ADD24RoundRect,0.243750X0.243750X0.456250X-0.243750X0.456250X-0.243750X-0.456250X0.243750X-0.456250X0*%
%TD*%
%TA.AperFunction,ViaPad*%
%ADD25C,0.600000*%
%TD*%
%TA.AperFunction,Conductor*%
%ADD26C,0.400000*%
%TD*%
%TA.AperFunction,Conductor*%
%ADD27C,0.600000*%
%TD*%
%TA.AperFunction,Conductor*%
%ADD28C,0.300000*%
%TD*%
G04 APERTURE END LIST*
D10*
%TO.P,TP(14),1,1*%
%TO.N,Net-(TP(14)1-Pad1)*%
X113970000Y-106096000D03*
%TD*%
D11*
%TO.P,C4,1*%
%TO.N,Net-(C4-Pad1)*%
X128476000Y-106731000D03*
%TO.P,C4,2*%
%TO.N,GND*%
X129436000Y-106731000D03*
%TD*%
D12*
%TO.P,2.2mm,1*%
%TO.N,N/C*%
X157150000Y-125019000D03*
%TD*%
D13*
%TO.P,R3,1*%
%TO.N,SDA*%
X151054000Y-118667000D03*
%TO.P,R3,2*%
%TO.N,VCC*%
X151054000Y-119687000D03*
%TD*%
D10*
%TO.P,TP(6),1,1*%
%TO.N,Net-(TP(6)1-Pad1)*%
X134798000Y-105842000D03*
%TD*%
%TO.P,TP(26),1,1*%
%TO.N,Net-(TP(26)1-Pad1)*%
X141910000Y-119812000D03*
%TD*%
D14*
%TO.P,J5+,1,Pin_1*%
%TO.N,Mt3+*%
X107910000Y-125962500D03*
D15*
%TO.P,J5+,2,Pin_2*%
%TO.N,Mt2+*%
X107910000Y-124962500D03*
%TO.P,J5+,3,Pin_3*%
%TO.N,Mt1+*%
X107910000Y-123962500D03*
%TO.P,J5+,4,Pin_4*%
%TO.N,Mt0+*%
X107910000Y-122962500D03*
%TD*%
D16*
%TO.P,U2,1,A0*%
%TO.N,GND*%
X158664000Y-108900000D03*
D17*
%TO.P,U2,2,A1*%
X156124000Y-108900000D03*
%TO.P,U2,3,A2*%
X153584000Y-108900000D03*
%TO.P,U2,4,GND*%
X151044000Y-108900000D03*
%TO.P,U2,5,SDA*%
%TO.N,SDA*%
X151044000Y-116520000D03*
%TO.P,U2,6,SCL*%
%TO.N,SCL*%
X153584000Y-116520000D03*
%TO.P,U2,7,WP*%
%TO.N,GND*%
X156124000Y-116520000D03*
%TO.P,U2,8,VCC*%
%TO.N,VCC*%
X158664000Y-116520000D03*
%TD*%
D11*
%TO.P,C5,1*%
%TO.N,Net-(C5-Pad1)*%
X124130000Y-106731000D03*
%TO.P,C5,2*%
%TO.N,GND*%
X125090000Y-106731000D03*
%TD*%
D12*
%TO.P,2.2mm,1*%
%TO.N,N/C*%
X157150000Y-103937000D03*
%TD*%
D14*
%TO.P,J3-,1,Pin_1*%
%TO.N,M3*%
X111938000Y-126162000D03*
D15*
%TO.P,J3-,2,Pin_2*%
%TO.N,M2*%
X111938000Y-125162000D03*
%TO.P,J3-,3,Pin_3*%
%TO.N,M1*%
X111938000Y-124162000D03*
%TO.P,J3-,4,Pin_4*%
%TO.N,M0*%
X111938000Y-123162000D03*
%TO.P,J3-,5,Pin_5*%
%TO.N,VCC*%
X111938000Y-122162000D03*
%TD*%
D10*
%TO.P,TP(uc),1*%
%TO.N,N/C*%
X148260000Y-122606000D03*
%TD*%
D18*
%TO.P,J1,1,Pin_1*%
%TO.N,GND*%
X143942000Y-124638000D03*
D19*
%TO.P,J1,2,Pin_2*%
%TO.N,AN*%
X141442000Y-124638000D03*
%TO.P,J1,3,Pin_3*%
%TO.N,PW*%
X138942000Y-124638000D03*
%TO.P,J1,4,Pin_4*%
%TO.N,VCC*%
X136442000Y-124638000D03*
%TD*%
D13*
%TO.P,R1,1*%
%TO.N,GND*%
X127686000Y-118540000D03*
%TO.P,R1,2*%
%TO.N,Net-(D1-Pad1)*%
X127686000Y-119560000D03*
%TD*%
D10*
%TO.P,TP(uc),1*%
%TO.N,N/C*%
X150800000Y-122606000D03*
%TD*%
%TO.P,TP(12),1,1*%
%TO.N,Net-(TP(12)1-Pad1)*%
X119050000Y-106096000D03*
%TD*%
%TO.P,TP(19),1,1*%
%TO.N,Net-(D1-Pad2)*%
X130480000Y-119558000D03*
%TD*%
D20*
%TO.P,SW1,2,2*%
%TO.N,GND*%
X145134000Y-105334000D03*
%TO.P,SW1,1,1*%
%TO.N,RESET*%
X141734000Y-105334000D03*
%TD*%
D10*
%TO.P,TP(4),1,1*%
%TO.N,Net-(TP(4)1-Pad1)*%
X139370000Y-105842000D03*
%TD*%
%TO.P,TP(24),1,1*%
%TO.N,Net-(TP(24)1-Pad1)*%
X136830000Y-119812000D03*
%TD*%
%TO.P,TP(25),1,1*%
%TO.N,Net-(TP(25)1-Pad1)*%
X139370000Y-119812000D03*
%TD*%
%TO.P,TP(uc),1*%
%TO.N,N/C*%
X153340000Y-122606000D03*
%TD*%
D21*
%TO.P,Y1,1,1*%
%TO.N,Net-(C5-Pad1)*%
X124130000Y-103302000D03*
%TO.P,Y1,2,2*%
%TO.N,Net-(C4-Pad1)*%
X129010000Y-103302000D03*
%TD*%
D22*
%TO.P,J4,1,Pin_1*%
%TO.N,GND*%
X110160000Y-115494000D03*
D23*
%TO.P,J4,2,Pin_2*%
%TO.N,VCC*%
X110160000Y-110414000D03*
%TD*%
D10*
%TO.P,TP(7),1,1*%
%TO.N,Net-(TP(7)1-Pad1)*%
X137084000Y-105842000D03*
%TD*%
D12*
%TO.P,2.2mm,1*%
%TO.N,N/C*%
X109398000Y-103937000D03*
%TD*%
D24*
%TO.P,D1,2,A*%
%TO.N,Net-(D1-Pad2)*%
X124208500Y-119304000D03*
%TO.P,D1,1,K*%
%TO.N,Net-(D1-Pad1)*%
X126083500Y-119304000D03*
%TD*%
D13*
%TO.P,R4,1*%
%TO.N,SCL*%
X153594000Y-118667000D03*
%TO.P,R4,2*%
%TO.N,VCC*%
X153594000Y-119687000D03*
%TD*%
D14*
%TO.P,J2,1,Pin_1*%
%TO.N,GND*%
X145434000Y-102576000D03*
D15*
%TO.P,J2,2,Pin_2*%
%TO.N,RXD*%
X144434000Y-102576000D03*
%TO.P,J2,3,Pin_3*%
%TO.N,TXD*%
X143434000Y-102576000D03*
%TO.P,J2,4,Pin_4*%
%TO.N,VCC*%
X142434000Y-102576000D03*
%TO.P,J2,5,Pin_5*%
%TO.N,RESET*%
X141434000Y-102576000D03*
%TD*%
D16*
%TO.P,U1,1,~{RESET}/PC6*%
%TO.N,RESET*%
X146990000Y-108890000D03*
D17*
%TO.P,U1,2,PD0*%
%TO.N,RXD*%
X144450000Y-108890000D03*
%TO.P,U1,3,PD1*%
%TO.N,TXD*%
X141910000Y-108890000D03*
%TO.P,U1,4,PD2*%
%TO.N,Net-(TP(4)1-Pad1)*%
X139370000Y-108890000D03*
%TO.P,U1,5,PD3*%
%TO.N,Net-(TP(7)1-Pad1)*%
X136830000Y-108890000D03*
%TO.P,U1,6,PD4*%
%TO.N,Net-(TP(6)1-Pad1)*%
X134290000Y-108890000D03*
%TO.P,U1,7,VCC*%
%TO.N,VCC*%
X131750000Y-108890000D03*
%TO.P,U1,8,GND*%
%TO.N,GND*%
X129210000Y-108890000D03*
%TO.P,U1,9,XTAL1/PB6*%
%TO.N,Net-(C4-Pad1)*%
X126670000Y-108890000D03*
%TO.P,U1,10,XTAL2/PB7*%
%TO.N,Net-(C5-Pad1)*%
X124130000Y-108890000D03*
%TO.P,U1,11,PD5*%
%TO.N,PW*%
X121590000Y-108890000D03*
%TO.P,U1,12,PD6*%
%TO.N,Net-(TP(12)1-Pad1)*%
X119050000Y-108890000D03*
%TO.P,U1,13,PD7*%
%TO.N,Net-(TP(13)1-Pad1)*%
X116510000Y-108890000D03*
%TO.P,U1,14,PB0*%
%TO.N,Net-(TP(14)1-Pad1)*%
X113970000Y-108890000D03*
%TO.P,U1,15,PB1*%
%TO.N,PWM0*%
X113970000Y-116510000D03*
%TO.P,U1,16,PB2*%
%TO.N,PWM1*%
X116510000Y-116510000D03*
%TO.P,U1,17,PB3*%
%TO.N,PWM2*%
X119050000Y-116510000D03*
%TO.P,U1,18,PB4*%
%TO.N,PWM3*%
X121590000Y-116510000D03*
%TO.P,U1,19,PB5*%
%TO.N,Net-(D1-Pad2)*%
X124130000Y-116510000D03*
%TO.P,U1,20,AVCC*%
%TO.N,VCC*%
X126670000Y-116510000D03*
%TO.P,U1,21,AREF*%
%TO.N,Net-(C1-Pad1)*%
X129210000Y-116510000D03*
%TO.P,U1,22,GND*%
%TO.N,GND*%
X131750000Y-116510000D03*
%TO.P,U1,23,PC0*%
%TO.N,AN*%
X134290000Y-116510000D03*
%TO.P,U1,24,PC1*%
%TO.N,Net-(TP(24)1-Pad1)*%
X136830000Y-116510000D03*
%TO.P,U1,25,PC2*%
%TO.N,Net-(TP(25)1-Pad1)*%
X139370000Y-116510000D03*
%TO.P,U1,26,PC3*%
%TO.N,Net-(TP(26)1-Pad1)*%
X141910000Y-116510000D03*
%TO.P,U1,27,PC4*%
%TO.N,SDA*%
X144450000Y-116510000D03*
%TO.P,U1,28,PC5*%
%TO.N,SCL*%
X146990000Y-116510000D03*
%TD*%
D10*
%TO.P,TP(13),1,1*%
%TO.N,Net-(TP(13)1-Pad1)*%
X116510000Y-106096000D03*
%TD*%
D25*
%TO.N,GND*%
X128814500Y-118796000D03*
X126670000Y-106604000D03*
%TO.N,VCC*%
X144704000Y-110668000D03*
X129464000Y-111938000D03*
%TO.N,RESET*%
X140640000Y-105334000D03*
%TO.N,PW*%
X127925039Y-112126500D03*
%TD*%
D26*
%TO.N,VCC*%
X127940000Y-117780000D02*
X126670000Y-116510000D01*
X128717739Y-117780000D02*
X127940000Y-117780000D01*
X129464000Y-118526261D02*
X128717739Y-117780000D01*
X129464000Y-120574000D02*
X129464000Y-118526261D01*
X133528000Y-124638000D02*
X129464000Y-120574000D01*
X136442000Y-124638000D02*
X133528000Y-124638000D01*
%TO.N,GND*%
X128558500Y-118540000D02*
X128814500Y-118796000D01*
X127686000Y-118540000D02*
X128558500Y-118540000D01*
X125090000Y-106731000D02*
X126543000Y-106731000D01*
X129464000Y-106759000D02*
X129436000Y-106731000D01*
X145434000Y-105034000D02*
X145434000Y-102576000D01*
X145134000Y-105334000D02*
X145434000Y-105034000D01*
X129464000Y-107874000D02*
X129464000Y-106759000D01*
X126543000Y-106731000D02*
X126670000Y-106604000D01*
X129210000Y-108128000D02*
X129464000Y-107874000D01*
X129210000Y-108890000D02*
X129210000Y-108128000D01*
D27*
%TO.N,VCC*%
X128448000Y-111176000D02*
X129464000Y-111176000D01*
X129464000Y-111176000D02*
X131750000Y-108890000D01*
D26*
X131750000Y-106858000D02*
X131750000Y-108890000D01*
X110160000Y-110414000D02*
X107620000Y-112954000D01*
X134290000Y-104318000D02*
X131750000Y-106858000D01*
X142434000Y-102742727D02*
X140858727Y-104318000D01*
X126670000Y-116510000D02*
X126670000Y-111938000D01*
D27*
X144704000Y-110668000D02*
X143434000Y-111938000D01*
X143434000Y-111938000D02*
X129718000Y-111938000D01*
X128448000Y-111430000D02*
X128448000Y-111176000D01*
D26*
X158664000Y-116520000D02*
X155497000Y-119687000D01*
D27*
X128956000Y-111938000D02*
X128448000Y-111430000D01*
D26*
X155497000Y-119687000D02*
X153594000Y-119687000D01*
D27*
X111684000Y-111938000D02*
X126670000Y-111938000D01*
X127432000Y-111176000D02*
X128448000Y-111176000D01*
D26*
X107620000Y-118134000D02*
X111648000Y-122162000D01*
X140858727Y-104318000D02*
X134290000Y-104318000D01*
X151054000Y-119687000D02*
X153594000Y-119687000D01*
D27*
X129718000Y-111938000D02*
X128956000Y-111938000D01*
X154082000Y-111938000D02*
X158664000Y-116520000D01*
X143434000Y-111938000D02*
X154082000Y-111938000D01*
D26*
X107620000Y-112954000D02*
X107620000Y-118134000D01*
X142434000Y-102576000D02*
X142434000Y-102742727D01*
D27*
X110160000Y-110414000D02*
X111684000Y-111938000D01*
X126670000Y-111938000D02*
X127432000Y-111176000D01*
D28*
%TO.N,RESET*%
X146990000Y-108890000D02*
X145466000Y-107366000D01*
X141734000Y-107190000D02*
X141734000Y-105334000D01*
X145466000Y-107366000D02*
X141910000Y-107366000D01*
D26*
X141734000Y-105334000D02*
X140640000Y-105334000D01*
D28*
X141910000Y-107366000D02*
X141734000Y-107190000D01*
D26*
%TO.N,Net-(C4-Pad1)*%
X128476000Y-106731000D02*
X128476000Y-103836000D01*
X126670000Y-108537000D02*
X128476000Y-106731000D01*
X128476000Y-103836000D02*
X129010000Y-103302000D01*
X126670000Y-108890000D02*
X126670000Y-108537000D01*
%TO.N,Net-(C5-Pad1)*%
X124130000Y-106731000D02*
X124130000Y-103302000D01*
X124130000Y-108890000D02*
X124130000Y-106731000D01*
%TO.N,Net-(D1-Pad1)*%
X126593500Y-119560000D02*
X126083500Y-119050000D01*
X127686000Y-119560000D02*
X126593500Y-119560000D01*
%TO.N,SDA*%
X144450000Y-116510000D02*
X146228000Y-118288000D01*
X146228000Y-118288000D02*
X151054000Y-118288000D01*
X151054000Y-118667000D02*
X151054000Y-118288000D01*
X151054000Y-116530000D02*
X151044000Y-116520000D01*
X151054000Y-118288000D02*
X151054000Y-116530000D01*
%TO.N,SCL*%
X153594000Y-118667000D02*
X153594000Y-116530000D01*
X151796000Y-114732000D02*
X148768000Y-114732000D01*
X148768000Y-114732000D02*
X146990000Y-116510000D01*
X153584000Y-116520000D02*
X151796000Y-114732000D01*
X153594000Y-116530000D02*
X153584000Y-116520000D01*
%TO.N,Net-(D1-Pad2)*%
X124208500Y-116588500D02*
X124130000Y-116510000D01*
X124208500Y-119304000D02*
X124208500Y-116588500D01*
%TO.N,PW*%
X135351000Y-122651000D02*
X136955000Y-122651000D01*
X127925039Y-112126500D02*
X127925039Y-112431039D01*
X136955000Y-122651000D02*
X138942000Y-124638000D01*
X130410000Y-117710000D02*
X135351000Y-122651000D01*
X127925039Y-112431039D02*
X130410000Y-114916000D01*
X130410000Y-114916000D02*
X130410000Y-117710000D01*
%TO.N,AN*%
X136068000Y-121082000D02*
X134290000Y-119304000D01*
X134290000Y-119304000D02*
X134290000Y-116510000D01*
X137886000Y-121082000D02*
X136068000Y-121082000D01*
X141442000Y-124638000D02*
X137886000Y-121082000D01*
%TO.N,Net-(TP(4)1-Pad1)*%
X139370000Y-105842000D02*
X139370000Y-108890000D01*
%TO.N,Net-(TP(6)1-Pad1)*%
X134798000Y-108382000D02*
X134290000Y-108890000D01*
X134798000Y-105842000D02*
X134798000Y-108382000D01*
%TO.N,Net-(TP(7)1-Pad1)*%
X137084000Y-105842000D02*
X137084000Y-108636000D01*
X137084000Y-108636000D02*
X136830000Y-108890000D01*
%TO.N,Net-(TP(24)1-Pad1)*%
X136830000Y-119812000D02*
X136830000Y-116510000D01*
%TO.N,Net-(TP(25)1-Pad1)*%
X139370000Y-119812000D02*
X139370000Y-116510000D01*
%TO.N,Net-(TP(26)1-Pad1)*%
X141910000Y-119812000D02*
X141910000Y-116510000D01*
%TO.N,Net-(TP(12)1-Pad1)*%
X119050000Y-106096000D02*
X119050000Y-108890000D01*
%TO.N,Net-(TP(13)1-Pad1)*%
X116510000Y-106096000D02*
X116510000Y-108890000D01*
%TO.N,Net-(TP(14)1-Pad1)*%
X113970000Y-106096000D02*
X113970000Y-108890000D01*
%TD*%
M02*
